<svg xmlns="http://www.w3.org/2000/svg" viewBox="0 0 109.99 145.48"><defs><style>.cls-1{isolation:isolate;}.cls-2,.cls-6{fill:none;}.cls-2{stroke:#231f20;}.cls-2,.cls-6,.cls-7{stroke-miterlimit:10;}.cls-3,.cls-4,.cls-7{fill:#231f20;}.cls-3{opacity:0.91;mix-blend-mode:color-burn;}.cls-5{fill:#fff;}.cls-6,.cls-7{stroke:#fff;}</style></defs><g class="cls-1"><g id="Layer_2" data-name="Layer 2"><g id="Drawings"><rect class="cls-2" x="5.83" y="44.81" width="17.32" height="100.17"/><rect class="cls-3" x="23.39" y="35.53" width="17.32" height="100.17"/><rect class="cls-2" x="40.72" y="24.82" width="17.32" height="100.17"/><rect class="cls-4" x="58.28" y="15.53" width="17.32" height="100.17"/><rect class="cls-2" x="75.1" y="9.29" width="17.32" height="100.17"/><rect class="cls-4" x="92.66" width="17.32" height="100.17"/><path class="cls-4" d="M4.6,74.73a86.24,86.24,0,0,0,9.34,12.51,73.73,73.73,0,0,0,5.35,5.68,5.84,5.84,0,0,1,2.05,5.51c-.57,3.28-.65,6.62-1.35,9.89a15.06,15.06,0,0,1-.64,2.3,10.39,10.39,0,0,1-.93,1.58,8.85,8.85,0,0,0-.68,4.17,58.2,58.2,0,0,0,.76,9.32c.05.34.92.13.87-.23a62.27,62.27,0,0,1-.75-8.4c0-1.45-.14-3.35.55-4.68.25-.47.61-.84.84-1.32a12,12,0,0,0,.74-2.32c.8-3.38.82-6.84,1.43-10.24a5.92,5.92,0,0,0-1.31-5.15c-1.33-1.57-2.94-2.95-4.34-4.48A90.48,90.48,0,0,1,5.4,74.37c-.17-.28-1,0-.8.36Z"/><path class="cls-4" d="M5.06,49C1.2,52-4,59.35,5,74.55"/><path class="cls-4" d="M13.05,44.61c-1.74.79-3.45,1.68-5.21,2.45a14.72,14.72,0,0,0-3.06,1.8c-.47.36.26.54.56.31A13.29,13.29,0,0,1,8.2,47.48c1.76-.77,3.47-1.66,5.21-2.46.14-.06.35-.22.23-.39s-.44-.09-.59,0Z"/><path class="cls-4" d="M23.39,40.47q-4.87,2-10.16,4.34h9.93l.23-4.34A154.72,154.72,0,0,1,58,30.83"/><path class="cls-5" d="M75.76,29.64a86.41,86.41,0,0,0-17.67.92c-.44.06-.7.62-.1.54a84.93,84.93,0,0,1,17.45-.91c.37,0,.91-.51.32-.55Z"/><path class="cls-4" d="M92.77,37.46A95.91,95.91,0,0,0,81.9,30.9a7.52,7.52,0,0,0-1.46-.7,23,23,0,0,0-4.68-.56c-.36,0-.91.51-.32.55a22.88,22.88,0,0,1,4.52.54c-.07,0,.16.06.29.13l1.23.62a95.32,95.32,0,0,1,10.6,6.44c.27.18,1.06-.2.69-.46Z"/><path class="cls-6" d="M92.72,74.34c26.55-12.59,12.24-27.85-.29-36.65"/><path class="cls-4" d="M92.14,93.77c-.62-.45-.69-1.43-.74-2.14a16.61,16.61,0,0,1,.18-3.45c.2-1.46.82-2.88.73-4.36a41.79,41.79,0,0,0-2-9.09c-.08-.28-1,0-.87.23a39.79,39.79,0,0,1,2,9.24,5.92,5.92,0,0,1-.32,1.87,22,22,0,0,0-.52,3c-.13,1.31-.56,4.1.72,5,.24.17,1-.18.81-.33Z"/><path class="cls-4" d="M92.78,96.11a24.53,24.53,0,0,0-6.09-1.42.83.83,0,0,0-.61.17c-.13.1-.12.23.06.25a24.1,24.1,0,0,1,5.94,1.38.82.82,0,0,0,.61-.09c.1-.06.28-.22.09-.29Z"/><path class="cls-6" d="M96.58,100.06c-.21-1.77-2.08-3-4.15-3.76"/><path class="cls-4" d="M76.19,110.18c6.38-.28,13.35-1.57,17.18-4.83l-.71-5.18,3.92-.11c.17,1.39-.67,3.12-3.21,5.29"/><path class="cls-4" d="M57.63,105.08a24.48,24.48,0,0,0,3.83,3.58,8.56,8.56,0,0,0,3.07,1.1,49.6,49.6,0,0,0,11.48.63c.28,0,.94-.45.36-.42a50.84,50.84,0,0,1-11.09-.58,8.11,8.11,0,0,1-3.19-1.18,26.4,26.4,0,0,1-3.64-3.45c-.19-.19-1,.13-.82.32Z"/><path class="cls-4" d="M48.74,118.47A23.79,23.79,0,0,1,47,114.3c-1-2.7-2-5.43-2.76-8.21a27.75,27.75,0,0,1-1.38-7.81,3.7,3.7,0,0,1,.64-2.38c.58-.6,1.52-.17,2.16.12a37.36,37.36,0,0,1,7,4.68,51.71,51.71,0,0,1,5,4.38c.19.18,1-.13.82-.32A51.27,51.27,0,0,0,47,95.92c-1.48-.8-3.78-1.31-4.61.63-.92,2.13-.1,5.12.4,7.26a78.36,78.36,0,0,0,2.9,9.35q.72,2,1.53,4a9.55,9.55,0,0,0,.74,1.67c.13.2,1-.07.81-.32Z"/><path class="cls-7" d="M22.87,69c1.61.62,2.92,1.7,3,3.37.2,3.36-3.86,4.56-.64,8.78s8.22,1.67,8.22,1.67,2.73-3.88.36-5.33"/><path class="cls-4" d="M21.56,58.22A8.5,8.5,0,0,0,21,54.51a3,3,0,0,0-1.64-1.73,4.75,4.75,0,0,0-3.25.34c-2.22.77-4.84,2.09-5.33,4.63a6.92,6.92,0,0,0,1,4.27,30.82,30.82,0,0,0,2.36,4.43A4.77,4.77,0,0,0,17,68.71a12,12,0,0,0,2.16,0,10.54,10.54,0,0,1,3.47.63c.39.14,1-.41.5-.6A11.3,11.3,0,0,0,18.74,68a3.31,3.31,0,0,1-2.84-.74,11.47,11.47,0,0,1-2.14-3.15,21.86,21.86,0,0,1-2-4.45c-.67-2.61,1-4.39,3.25-5.42a7,7,0,0,1,3.46-1,2.22,2.22,0,0,1,1.63,1.4,7.83,7.83,0,0,1,.57,3.59c0,.46.86.35.88-.06Z"/><path class="cls-4" d="M92.32,68.33a3.51,3.51,0,0,1-1.71,2,3.61,3.61,0,0,1-2.06.08,9.47,9.47,0,0,1-2.07-.68c-.41-.18-.78-.43-1.19-.61l-.1-.06s0,.09,0,0a2.53,2.53,0,0,1,.31-.49A10.38,10.38,0,0,1,87,66.77a4,4,0,0,1,.94-.74c.1,0,0,0,.2,0s.29.11.44.15c.41.11,1.27,0,1.16-.61a3.17,3.17,0,0,0-1.29-1.68A2.28,2.28,0,0,0,86,63.8c-.15.08-.09.14.05.16a1.1,1.1,0,0,0,.61-.17c.11,0-.07,0,0,0a1,1,0,0,1,.24,0,1.89,1.89,0,0,1,.51.21,3.68,3.68,0,0,1,.9.77,2.92,2.92,0,0,1,.49.81,1.73,1.73,0,0,1,.07.31s0,.07,0,.09.74,0,.46-.16a2.33,2.33,0,0,0-2.15.24,6.49,6.49,0,0,0-1.82,1.76,14.26,14.26,0,0,0-1,1.45s0,0,0,.06c2,1.26,4.71,2.09,6.92,1a4,4,0,0,0,1.91-2.19c0-.11-.78,0-.86.16Z"/><path class="cls-6" d="M91.86,60.83c1,.34,1.62,1.46,1.41,4.75a9.08,9.08,0,0,1-.52,2.67"/><path class="cls-4" d="M86.06,51.09s0,0,0,0-.06,0,.07,0l.48-.06a4.77,4.77,0,0,1,1.64.1c1.73.42,2.45,2,2.48,3.66a4,4,0,0,1-.64,2.78c-.08.08-.22.1,0,.08a1.14,1.14,0,0,1-.25,0,4.55,4.55,0,0,1-.73-.17,2.24,2.24,0,0,0-1.51,0c-.55.22-.62.68-.6,1.23.06,1,.35,2.06,1.45,2.26s2-.25,3,.07a.91.91,0,0,0,.56-.06s.39-.18.26-.22a7.85,7.85,0,0,0-2.65-.07c-1.18,0-1.61-.85-1.73-1.93a2,2,0,0,1,0-1s.07-.1.07-.13.08,0,0,0-.26.1-.28.08h0s.12,0,.16,0A10.53,10.53,0,0,0,89.4,58a2.08,2.08,0,0,0,1.67-.67,4.57,4.57,0,0,0,.57-2.88,3.53,3.53,0,0,0-2.56-3.6,6.22,6.22,0,0,0-3.09.06s-.44.12-.4.23.4,0,.47,0Z"/><path class="cls-6" d="M40.73,42c-5.2.4-10.86,2.18-15.16,7.06"/><path class="cls-4" d="M51.17,39.58l3.31,4.32.75-.39a36.31,36.31,0,0,0-14.44-1.79c-.43,0-.72.53-.12.48a34.88,34.88,0,0,1,13.86,1.74c.18.06,1-.07.76-.39L52,39.24c-.18-.24-1,.06-.81.34Z"/><path class="cls-4" d="M75.45,38.39A21.27,21.27,0,0,1,86,41.89a16.47,16.47,0,0,1,2.87,2.32,5.87,5.87,0,0,1,.75.9,2,2,0,0,0,.15.29s0,.09,0,.1.34-.25.34-.25c-.48.06-.68.69-.09.62,1.66-.2-.59-2.26-1-2.61a21.86,21.86,0,0,0-13.29-5.48c-.42,0-.9.58-.31.61Z"/><path class="cls-5" d="M58.32,40.47l.71,4c.06.29.57.2.73.07,4.41-3.76,9.79-6.35,15.69-6.1.41,0,.89-.59.31-.61-6.22-.26-11.91,2.37-16.58,6.33l.72.07-.71-3.94c-.07-.39-.94-.17-.87.23Z"/><path class="cls-4" d="M59.27,70.86,58,66.57a9.51,9.51,0,0,0-.47-1.6,3.35,3.35,0,0,0-1-.94A5.59,5.59,0,0,0,50,63.71C48.12,65,46.45,67.32,48,69.42c1.11,1.47,3.56,2.61,5.41,2.06.52-.15.41-.6-.12-.44a3.45,3.45,0,0,1-2-.23,5.73,5.73,0,0,1-2.19-1.39,2.93,2.93,0,0,1-.88-2.24,4.62,4.62,0,0,1,2-3,4,4,0,0,1,3.46-.81A6,6,0,0,1,56,64.61c.2.16.38.33.56.5a.68.68,0,0,1,.12.12s0-.08,0,0c.2.49.3,1.05.45,1.56l1.25,4.29c.09.31,1,.07.87-.23Z"/><path class="cls-5" d="M60,55.7c.49,1.25,1,2.5,1.57,3.7.46.94,1.06,2.39,2.05,2.9a6.59,6.59,0,0,0,1.78.33,23.45,23.45,0,0,1,2.73.63c1.67.52,4.15,1.58,3.9,3.73a6,6,0,0,1-2.27,3.51,7.31,7.31,0,0,1-4.58,1.68,12.46,12.46,0,0,1-6-1.41c-.25-.14-1,.23-.69.42C62.91,73.53,69,73.31,72,68.88A3.15,3.15,0,0,0,71,63.76,16.08,16.08,0,0,0,65.16,62a3,3,0,0,1-.9-.19,4.38,4.38,0,0,1-1.37-1.78,38.53,38.53,0,0,1-2-4.6c-.12-.3-1,0-.87.23Z"/><path class="cls-4" d="M54.07,59.88a21.27,21.27,0,0,0-5-.19c-2.37.18-5.43.78-6.69,3.06-.86,1.55-.51,3.43.05,5,.08.24.94,0,.87-.23A6.45,6.45,0,0,1,43,63.08a4.21,4.21,0,0,1,2.28-2.24,14,14,0,0,1,6.57-.75c.54,0,1.09.09,1.63.17.21,0,1-.31.55-.38Z"/><path class="cls-5" d="M41,53.28A21.82,21.82,0,0,1,34,51.1c-.23-.12-1,.23-.7.4a22.17,22.17,0,0,0,7.1,2.22.82.82,0,0,0,.62-.17c.12-.11.11-.25-.07-.27Z"/><path class="cls-4" d="M55.58,49.45a17.44,17.44,0,0,1-4,2.25A20.66,20.66,0,0,1,41,53.28c-.26,0-1,.38-.55.44a22.35,22.35,0,0,0,11.2-1.57,19.21,19.21,0,0,0,4.64-2.59c.38-.3-.49-.27-.69-.11Z"/><path class="cls-5" d="M40.67,46.3a30,30,0,0,0-6.55,2.78c-.13.07-.25.2-.09.3s.48,0,.61-.1a27.39,27.39,0,0,1,6.13-2.61c.1,0,.43-.14.38-.3s-.39-.1-.48-.07Z"/><path class="cls-4" d="M55,47.36a12.68,12.68,0,0,0-4-1.48,21.26,21.26,0,0,0-10.36.42c-.51.14-.42.51.1.37a19.73,19.73,0,0,1,9.86-.33,12.12,12.12,0,0,1,3.56,1.34c.24.15,1-.2.81-.32Z"/><path class="cls-4" d="M58.19,51.73q-.42-.07-.84-.18l-.2,0-.06,0s0,0,0,0l-.12,0-.43-.11a.58.58,0,0,0-.61.16.31.31,0,0,0-.07.26.29.29,0,0,0,.18.18q.91.24,1.83.42a.54.54,0,0,0,.57-.27c.08-.21-.08-.34-.27-.38Z"/><path class="cls-5" d="M74.91,49.09a24.05,24.05,0,0,1-16.72,2.64c-.44-.08-.88.54-.3.65A25.18,25.18,0,0,0,75.3,49.63c.51-.3,0-.79-.39-.54Z"/><path class="cls-4" d="M75,47.63l.49.11h0l.11,0,.21,0,.66.18.57.16,0-.5c-.18.15-.36.29-.55.42s-.44.32-.67.47l-.43.27s-.11.07,0,0l-.12.07-.27.16c-.15.09-.35.29-.21.47a.51.51,0,0,0,.6.07c.58-.35,1.16-.71,1.7-1.11a6.17,6.17,0,0,0,.57-.44.32.32,0,0,0,.15-.28.28.28,0,0,0-.19-.23c-.75-.23-1.51-.42-2.28-.59a.57.57,0,0,0-.57.27c-.08.22.08.34.27.38Z"/><path class="cls-5" d="M59,48.44c4.86-2.48,10.84-2,16-.81.44.1.88-.52.3-.65-5.39-1.2-11.62-1.66-16.69.93-.53.27-.06.76.39.53Z"/><path class="cls-4" d="M39.28,51.08c.49,1.18,2.42,1.39,3.51,1.54a16.18,16.18,0,0,0,5,0c1.7-.31,3.89-1.63,3.68-3.64s-2.76-2.72-4.49-2.47c-2.1.29-4.43.34-6.34,1.35-.53.28-.06.77.39.54a14,14,0,0,1,4.93-1.1c1.51-.18,3.51-.46,4.41,1.14s-1,3.21-2.53,3.52a13.41,13.41,0,0,1-4,.07,11,11,0,0,1-2.27-.41c-.43-.13-1.13-.33-1.33-.8s-1-.15-.87.24Z"/><path class="cls-5" d="M40.6,47.88a3,3,0,0,0-1.33,1.3,2.5,2.5,0,0,0,0,1.9c.07.2.33.24.52.19s.43-.22.35-.43A2.64,2.64,0,0,1,40,50a2.43,2.43,0,0,1,0-.38s0,0,0-.08,0,.06,0,0l.06-.17.08-.16,0,0,0,0a2.09,2.09,0,0,1,.24-.28h0l.06-.06.17-.13.15-.1c.1-.07-.08,0,0,0l.1,0c.15-.09.33-.28.2-.46a.48.48,0,0,0-.59-.08Z"/><path class="cls-5" d="M67.4,47.53a2.11,2.11,0,0,0-1.6-.06,6.74,6.74,0,0,0-1.84.87,6.63,6.63,0,0,0-1.51,1.34A2,2,0,0,0,61.88,51,2.78,2.78,0,0,0,63,52.72a4.48,4.48,0,0,0,2.13,1c1.57.2,2.9-.92,3.74-2.12a4.34,4.34,0,0,0,.88-1.88,1.34,1.34,0,0,0-1-1.51.82.82,0,0,0-.61.1c-.1.05-.29.19-.1.26a1.16,1.16,0,0,1,.87,1.12,3.07,3.07,0,0,1-.5,1.45,7,7,0,0,1-.82,1.14A2.65,2.65,0,0,1,66,53.29a3.19,3.19,0,0,1-1.73-.57,3.62,3.62,0,0,1-1.38-1.42,1.25,1.25,0,0,1,0-1.23,4.16,4.16,0,0,1,1-1.14,6.08,6.08,0,0,1,1.53-1,1.19,1.19,0,0,1,1.11-.1.73.73,0,0,0,.56,0s.4-.19.26-.28Z"/><path class="cls-5" d="M75.39,80.84a29.68,29.68,0,0,1-3.25.38c-.49,0-1.68.17-2-.3-.13-.18-.06-.43-.15-.63a.83.83,0,0,0-.57-.46,4.68,4.68,0,0,0-2.58.33,11.26,11.26,0,0,0-3.12,1.65l-.65.52c-.22.16-.44.31-.67.45s-.82.32-.12.17a1.92,1.92,0,0,1,.54-.08l-.11-.05s-.21-.3-.23-.35c-.16-.39-.24-.7-.64-.91-1-.54-2.56-.11-3.59.18-.24.06-1.45.38-1.35.78s1.38,0,1.56,0a.8.8,0,0,1,.79.07c.31.24.27.66.5,1,.37.49,1.08.45,1.62.39A9.15,9.15,0,0,0,65.68,82l.61-.48c.09-.07.09-.06,0,0l.25-.16c.24-.15.48-.3.73-.44s.58-.18.32-.17a5.7,5.7,0,0,0-.68.11s.15.16.16.19a1.06,1.06,0,0,0,.86,1.07,7.91,7.91,0,0,0,2.87.16c1.35-.08,2.7-.28,4-.49.35-.06,1.63-.32,1.71-.76s-.93-.25-1.14-.21Z"/><path class="cls-4" d="M76.41,86.78a12.67,12.67,0,0,0,4-6.49c.12-.54-1.36-.16-1.53-.12s.54-.12.27-.07l-.23.06-.85.18c-.89.18-1.79.35-2.68.5a4.32,4.32,0,0,0-1.11.34c-.13.06-.54.23-.6.41-.17.45,1,.24,1.14.22,1.43-.24,2.85-.53,4.27-.85l-1.53-.13a12.1,12.1,0,0,1-3.76,6.23c-.47.42.42.42.66.4a5.31,5.31,0,0,0,1.13-.26,2.28,2.28,0,0,0,.82-.42Z"/><path class="cls-5" d="M57.08,91.82a15.76,15.76,0,0,0,5.7,1.08A17.93,17.93,0,0,0,66.51,92a26.46,26.46,0,0,0,9.9-5.23c.48-.42-.43-.42-.67-.4a3.67,3.67,0,0,0-1.94.68A21.29,21.29,0,0,1,66,91.31c-.36.12-.87.26-1.3.37-.08,0-.67.16-.33.09a2.8,2.8,0,0,0-.28.06c-.29.09,0,0,.13,0-.59-.13-1.23-.15-1.83-.28-1-.22-2-.5-2.91-.79a3.32,3.32,0,0,0-2,.39c-.28.12-1,.49-.38.68Z"/><path class="cls-4" d="M58.21,81.74a17.8,17.8,0,0,0-3.3,1.33c-.1.05-.38.23-.35.39a2.06,2.06,0,0,1-.15,1.24,2.61,2.61,0,0,1-.28.52,1.76,1.76,0,0,1-.45.46s-.23.16,0,0l-.18.11c-.06,0-.3.15,0,0-.06,0-.16.1-.22.1.28,0,.17-.06,0,0-.32.09.36-.09,0,0s-.24.17,0,0a1.56,1.56,0,0,1-.43.08c.33-.06-.06,0-.11,0l-.37,0h-.66c-.55,0-1.1,0-1.65,0a6.24,6.24,0,0,0-1.6.33c-.35.12-1,.33-1.19.71s.3.73.57.92a12.45,12.45,0,0,0,2,1.11,56.87,56.87,0,0,0,7.18,2.7,3.42,3.42,0,0,0,2-.39c.28-.13,1-.5.38-.68a56,56,0,0,1-6.3-2.34,18.64,18.64,0,0,1-2.27-1.16,3.59,3.59,0,0,1-.58-.42c-.1-.09-.09-.06-.13-.14s0-.18-.05-.19-.09.07,0,0l-.08.09a2,2,0,0,1-.66.33,2,2,0,0,1-.82.19.5.5,0,0,0,.21,0c-.36,0,.22,0,.31,0l1,0a13.23,13.23,0,0,0,3.48-.49c1.34-.38,3-1,3.6-2.37a2.78,2.78,0,0,0,.25-1.61l-.35.4c.18-.1-.2.09-.08,0l.45-.22.58-.25c-.12,0,.09,0,.11,0l.25-.09c.26-.08,1.42-.36,1.34-.79s-1.4,0-1.55,0Z"/></g></g></g></svg>