<svg xmlns="http://www.w3.org/2000/svg" viewBox="0 0 109.99 145.48"><defs><style>.cls-1,.cls-4{fill:none;}.cls-1{stroke:#231f20;}.cls-1,.cls-4,.cls-5{stroke-miterlimit:10;}.cls-2,.cls-5{fill:#231f20;}.cls-3{fill:#fff;}.cls-4,.cls-5{stroke:#fff;}</style></defs><g id="Layer_2" data-name="Layer 2"><g id="Drawings"><rect class="cls-1" x="5.83" y="44.81" width="17.32" height="100.17"/><rect class="cls-2" x="23.39" y="35.53" width="17.32" height="100.17"/><rect class="cls-1" x="40.72" y="24.82" width="17.32" height="100.17"/><rect class="cls-2" x="58.28" y="15.53" width="17.32" height="100.17"/><rect class="cls-1" x="75.1" y="9.29" width="17.32" height="100.17"/><rect class="cls-2" x="92.66" width="17.32" height="100.17"/><path class="cls-2" d="M4.56,74.66a86.17,86.17,0,0,0,9.09,12.23,78.51,78.51,0,0,0,5.58,6,6,6,0,0,1,2.23,4.94,102.16,102.16,0,0,1-1.41,10.31,11.44,11.44,0,0,1-1.58,4.1,7.76,7.76,0,0,0-.72,3.87,54.54,54.54,0,0,0,.75,9.63c0,.16.9,0,.87-.23a64.37,64.37,0,0,1-.75-8.08c0-1.57-.16-3.51.51-5,.2-.45.55-.78.78-1.21a9.35,9.35,0,0,0,.77-2.25c.84-3.38.91-6.87,1.46-10.3A5.94,5.94,0,0,0,21,93.47c-1.23-1.5-2.78-2.8-4.1-4.23A91,91,0,0,1,5.43,74.43c-.12-.2-.93.13-.87.23Z"/><path class="cls-2" d="M5.06,49C1.2,52-4,59.35,5,74.55"/><path class="cls-2" d="M13,44.75c-1.72.78-3.4,1.64-5.12,2.42A15.38,15.38,0,0,0,4.72,49c-.35.27.51.17.67,0a14.92,14.92,0,0,1,2.89-1.69c1.75-.78,3.46-1.66,5.21-2.46.11-.06.25-.15.1-.24s-.48,0-.61.11Z"/><path class="cls-2" d="M23.39,40.47q-4.87,2-10.16,4.34H24.16l-.77-4.34A154.72,154.72,0,0,1,58,30.83"/><path class="cls-3" d="M75.77,29.68a86.41,86.41,0,0,0-17.67.92c-.4,0-.73.54-.12.46a84.93,84.93,0,0,1,17.45-.91c.32,0,.93-.43.34-.47Z"/><path class="cls-2" d="M92.84,37.54A94.55,94.55,0,0,0,82,31a8.17,8.17,0,0,0-1.43-.69,22.23,22.23,0,0,0-4.66-.56c-.21,0-1,.36-.56.39a20.44,20.44,0,0,1,4.55.54,10,10,0,0,1,1.54.76A95.45,95.45,0,0,1,92,37.85c.21.14,1-.2.82-.31Z"/><path class="cls-4" d="M92.72,74.34c26.55-12.59,12.24-27.85-.29-36.65"/><path class="cls-2" d="M92.14,93.77c-.62-.45-.69-1.43-.74-2.14a16.61,16.61,0,0,1,.18-3.45c.2-1.45.82-2.88.73-4.36a41.79,41.79,0,0,0-2-9.09c-.08-.29-1,0-.87.23a39.79,39.79,0,0,1,2,9.24,6,6,0,0,1-.32,1.87,20.37,20.37,0,0,0-.52,3c-.13,1.3-.56,4.11.72,5,.24.17,1-.18.81-.34Z"/><path class="cls-2" d="M92.78,96.09a24.53,24.53,0,0,0-6.09-1.42.8.8,0,0,0-.62.16c-.12.12-.12.28.08.3a24.13,24.13,0,0,1,5.93,1.38.76.76,0,0,0,.62-.09c.1-.06.28-.25.08-.33Z"/><path class="cls-4" d="M96.58,100.06c-.21-1.77-2.08-3-4.15-3.76"/><path class="cls-2" d="M76.19,110.18c6.38-.28,12.35-1.57,16.18-4.83l.29-5.18,3.92-.11c.17,1.39-.67,3.12-3.21,5.29"/><path class="cls-2" d="M57.63,105.07a24,24,0,0,0,3.83,3.58,8.4,8.4,0,0,0,3.07,1.11,50.12,50.12,0,0,0,11.48.62c.27,0,.94-.43.36-.4a50.11,50.11,0,0,1-11.08-.59,7.94,7.94,0,0,1-3.2-1.18,25.82,25.82,0,0,1-3.64-3.45c-.18-.18-1,.14-.82.31Z"/><path class="cls-2" d="M48.77,118.51a21,21,0,0,1-1.68-4.07c-1-2.68-2-5.41-2.75-8.17a27.94,27.94,0,0,1-1.44-8,3.73,3.73,0,0,1,.64-2.39c.57-.61,1.52-.17,2.16.12a37.75,37.75,0,0,1,7,4.69,51.61,51.61,0,0,1,5,4.37c.18.18,1-.14.82-.31a51,51,0,0,0-4.61-4.09,46.48,46.48,0,0,0-7-4.79c-1.44-.75-3.67-1.21-4.5.63-1,2.1-.13,5.1.36,7.21a79.19,79.19,0,0,0,2.89,9.37c.48,1.32,1,2.63,1.52,3.93a8.78,8.78,0,0,0,.75,1.72c.15.24,1-.09.87-.23Z"/><path class="cls-5" d="M22.87,69c1.61.62,2.92,1.7,3,3.37.2,3.36-3.86,4.56-.64,8.78s8.22,1.67,8.22,1.67,2.73-3.88.36-5.33"/><path class="cls-2" d="M21.56,58.21a8.33,8.33,0,0,0-.55-3.7,3,3,0,0,0-1.64-1.72,4.85,4.85,0,0,0-3.24.35c-2.21.77-4.85,2.08-5.34,4.62a7,7,0,0,0,1,4.26,32.36,32.36,0,0,0,2.35,4.43A4.76,4.76,0,0,0,17,68.69a16,16,0,0,0,2.29,0,10.62,10.62,0,0,1,3.34.63c.35.13,1-.38.5-.57A11.42,11.42,0,0,0,18.74,68a4.64,4.64,0,0,1-1.62,0,3.25,3.25,0,0,1-1.28-.81,11.87,11.87,0,0,1-2.08-3.1,21.62,21.62,0,0,1-2-4.45c-.67-2.61,1-4.41,3.24-5.44a7,7,0,0,1,3.46-1,2.28,2.28,0,0,1,1.64,1.43,7.72,7.72,0,0,1,.57,3.59c0,.44.86.31.88-.07Z"/><path class="cls-2" d="M92.32,68.33a3.51,3.51,0,0,1-1.71,2,3.61,3.61,0,0,1-2.06.08,9.47,9.47,0,0,1-2.07-.68c-.41-.18-.78-.43-1.19-.61l-.1-.06s0,.09,0,0a2.53,2.53,0,0,1,.31-.49A10.38,10.38,0,0,1,87,66.77a3.71,3.71,0,0,1,.94-.73c.1-.06,0-.06.2,0s.29.11.44.15c.42.11,1.27,0,1.16-.61a3.17,3.17,0,0,0-1.29-1.68A2.28,2.28,0,0,0,86,63.8c-.15.08-.09.14.05.16a1.25,1.25,0,0,0,.62-.16c.1-.06-.08,0,0,0a1,1,0,0,1,.24,0,1.89,1.89,0,0,1,.51.21,3.68,3.68,0,0,1,.9.77,2.92,2.92,0,0,1,.49.81,1.73,1.73,0,0,1,.07.31s0,.07,0,.09.74,0,.46-.16a2.33,2.33,0,0,0-2.15.24,6.49,6.49,0,0,0-1.82,1.76,14.26,14.26,0,0,0-1,1.45s0,0,0,.06c2,1.26,4.71,2.1,6.92,1a4,4,0,0,0,1.91-2.19c0-.12-.78,0-.86.16Z"/><path class="cls-4" d="M91.86,60.83c1,.34,1.62,1.46,1.41,4.75a9.08,9.08,0,0,1-.52,2.67"/><path class="cls-2" d="M86.09,51.21l.2-.05c-.13,0,.09,0,.14,0l.34,0a4.67,4.67,0,0,1,1.58.08c1.78.42,2.45,2.08,2.42,3.78,0,.69,0,2-.65,2.49-.12.09-.22.08-.43.06a5.35,5.35,0,0,1-.69-.17,2,2,0,0,0-1.45,0c-.58.27-.59.9-.55,1.47.09,1.06.47,2,1.63,2.22,1,.16,2-.24,3,.08.3.1,1-.33.53-.5a8.85,8.85,0,0,0-2.72-.06c-1.14,0-1.45-1-1.53-2a2,2,0,0,1,0-.55c0-.06.11-.29.1-.32s-.12,0-.12,0a.45.45,0,0,1,.18,0,10.53,10.53,0,0,0,1.48.32c2,.07,2.19-2.23,2.12-3.72A3.65,3.65,0,0,0,89,50.72a6.07,6.07,0,0,0-3.08,0c-.52.14-.4.61.13.47Z"/><path class="cls-4" d="M40.73,42c-5.2.4-10.86,2.18-15.16,7.06"/><path class="cls-2" d="M51.18,39.6l3.3,4.31.65-.47a36.08,36.08,0,0,0-14.36-1.79c-.48,0-.68.67-.08.62A35.09,35.09,0,0,1,54.63,44c.23.08.91-.14.65-.47L52,39.22c-.23-.31-1.07,0-.8.38Z"/><path class="cls-2" d="M75.32,38.27A21.33,21.33,0,0,1,86,41.89a16.19,16.19,0,0,1,2.87,2.35,5.17,5.17,0,0,1,.72.9,1.34,1.34,0,0,0,.13.27c.22.32-.78.13.5,0-.23,0-.94.43-.37.36s.89-.22.67-.72a5.61,5.61,0,0,0-1.42-1.65A20.93,20.93,0,0,0,82,39.14a21.21,21.21,0,0,0-6.11-1.23c-.19,0-1,.33-.56.36Z"/><path class="cls-3" d="M58.32,40.47l.71,4c0,.19.75-.09.83-.16,4.37-3.72,9.62-6.25,15.46-6,.17,0,1-.31.57-.33-6.28-.26-12.1,2.42-16.81,6.42l.82-.16-.71-3.94c0-.16-.9,0-.87.23Z"/><path class="cls-2" d="M59.27,70.86,58,66.57a10.89,10.89,0,0,0-.47-1.6,3.44,3.44,0,0,0-1-1A5.53,5.53,0,0,0,50,63.65c-1.88,1.25-3.51,3.68-1.92,5.79a5.82,5.82,0,0,0,2.65,1.85,4.44,4.44,0,0,0,2.78.27c.53-.16.38-.76-.16-.6a3.33,3.33,0,0,1-2-.21,5.53,5.53,0,0,1-2.19-1.35,2.85,2.85,0,0,1-.86-2.2,4.56,4.56,0,0,1,2-3,4.05,4.05,0,0,1,3.4-.79A6.11,6.11,0,0,1,56,64.64c.2.16.38.33.56.49a1.36,1.36,0,0,1,.12.12s-.05-.12,0,0c.19.5.3,1.05.45,1.56l1.25,4.29c.11.41,1,.17.87-.23Z"/><path class="cls-3" d="M60,55.7c.49,1.25,1,2.5,1.57,3.7.45.93,1.06,2.4,2.05,2.88a6.59,6.59,0,0,0,1.77.33,19.91,19.91,0,0,1,2.77.65c1.68.53,4.12,1.59,3.87,3.74a6,6,0,0,1-2.27,3.52,7.28,7.28,0,0,1-4.57,1.69,12.54,12.54,0,0,1-6-1.43c-.22-.12-1,.22-.7.4C62.89,73.51,69,73.28,72,68.87A3.13,3.13,0,0,0,71,63.77a16.22,16.22,0,0,0-5.79-1.71,2.58,2.58,0,0,1-.92-.21,4.43,4.43,0,0,1-1.36-1.78,38.53,38.53,0,0,1-2-4.6c-.1-.27-1,0-.87.23Z"/><path class="cls-2" d="M54.15,59.91a21.87,21.87,0,0,0-5-.18c-2.34.17-5.45.78-6.7,3-.86,1.55-.51,3.42.05,5,.06.18.92-.08.87-.23a6.54,6.54,0,0,1-.3-4.42,4.25,4.25,0,0,1,2.29-2.31,13.6,13.6,0,0,1,6.52-.74c.53,0,1.07.08,1.6.17a1.07,1.07,0,0,0,.61-.12c.06,0,.31-.17.11-.2Z"/><path class="cls-3" d="M41,53.27A21.77,21.77,0,0,1,34,51.09c-.24-.12-1.05.24-.7.41a22,22,0,0,0,7.11,2.23.75.75,0,0,0,.61-.17c.12-.11.12-.27-.08-.29Z"/><path class="cls-2" d="M55.58,49.44a17.64,17.64,0,0,1-4,2.24A20.65,20.65,0,0,1,41,53.26c-.27,0-1,.41-.53.47a22.31,22.31,0,0,0,11.19-1.56,19.05,19.05,0,0,0,4.64-2.6c.39-.3-.48-.31-.69-.13Z"/><path class="cls-3" d="M40.67,46.31a30,30,0,0,0-6.55,2.78c-.12.07-.25.18-.09.28s.48,0,.61-.1a28,28,0,0,1,6.12-2.62c.1,0,.44-.13.39-.28s-.39-.08-.48-.06Z"/><path class="cls-2" d="M54.93,47.26a12.68,12.68,0,0,0-4-1.49,21.1,21.1,0,0,0-10.35.39c-.54.15-.37.79.17.64a20.33,20.33,0,0,1,9.89-.36,12.29,12.29,0,0,1,3.57,1.34c.35.22,1.1-.25.67-.52Z"/><path class="cls-2" d="M58.3,51.81c-.58-.12-1.15-.25-1.72-.4a.72.72,0,0,0-.62.16.25.25,0,0,0-.08.21.23.23,0,0,0,.17.13c.57.15,1.15.28,1.73.4a.68.68,0,0,0,.61-.17.17.17,0,0,0-.09-.33Z"/><path class="cls-3" d="M74.84,49.24a23.85,23.85,0,0,1-16.53,2.59c-.27,0-1,.37-.54.46a25.45,25.45,0,0,0,17.6-2.81c.51-.29-.26-.4-.53-.24Z"/><path class="cls-2" d="M74.85,47.6c.73.16,1.46.34,2.18.57l0-.49a5.7,5.7,0,0,1-.55.42c-.22.16-.44.32-.67.47l-.43.27-.22.14s0,0,0,0l-.07,0-.15.09c-.15.08-.34.26-.21.44a.51.51,0,0,0,.6.07,15.17,15.17,0,0,0,2.27-1.55.33.33,0,0,0,.15-.27.26.26,0,0,0-.19-.22c-.71-.23-1.44-.4-2.18-.57a.63.63,0,0,0-.61.17.25.25,0,0,0,.11.42Z"/><path class="cls-3" d="M58.94,48.39c4.83-2.46,10.77-2,15.9-.82.33.07,1-.41.52-.53-5.42-1.21-11.68-1.68-16.79.92-.53.27,0,.64.37.43Z"/><path class="cls-2" d="M39.28,51.08c.49,1.18,2.42,1.39,3.51,1.54a16.18,16.18,0,0,0,5,0c1.7-.31,3.89-1.63,3.68-3.64s-2.76-2.72-4.49-2.47c-2.1.29-4.43.34-6.34,1.35-.53.28-.06.77.39.54a14,14,0,0,1,4.93-1.1c1.51-.18,3.51-.46,4.41,1.14s-1,3.21-2.53,3.52a13.41,13.41,0,0,1-4,.07,11,11,0,0,1-2.27-.41c-.43-.13-1.13-.33-1.33-.8s-1-.15-.87.24Z"/><path class="cls-3" d="M40.61,47.92a3,3,0,0,0-1.33,1.28,2.45,2.45,0,0,0,0,1.88c.07.19.34.2.51.15s.43-.19.36-.39A2.55,2.55,0,0,1,40,50a1.18,1.18,0,0,1,0-.37,1.16,1.16,0,0,1,0-.18.61.61,0,0,1,.05-.12,1.43,1.43,0,0,1,.16-.3c.06-.09,0,0,0,0l0-.06.13-.14.12-.11,0,0,.09-.06.15-.1.09-.06s.12-.07,0,0c.13-.08.35-.24.21-.41s-.43-.13-.58,0Z"/><path class="cls-3" d="M67.4,47.53a2.11,2.11,0,0,0-1.6-.06,6.74,6.74,0,0,0-1.84.87,6.63,6.63,0,0,0-1.51,1.34A2,2,0,0,0,61.88,51,2.78,2.78,0,0,0,63,52.72a4.48,4.48,0,0,0,2.13,1c1.57.2,2.9-.92,3.74-2.12a4.34,4.34,0,0,0,.88-1.88,1.34,1.34,0,0,0-1-1.51.82.82,0,0,0-.61.1c-.1.05-.29.19-.1.26a1.16,1.16,0,0,1,.87,1.12,3.07,3.07,0,0,1-.5,1.45,7,7,0,0,1-.82,1.14A2.65,2.65,0,0,1,66,53.29a3.19,3.19,0,0,1-1.73-.57,3.62,3.62,0,0,1-1.38-1.42,1.25,1.25,0,0,1,0-1.23,4.16,4.16,0,0,1,1-1.14,6.08,6.08,0,0,1,1.53-1,1.19,1.19,0,0,1,1.11-.1.73.73,0,0,0,.56,0s.4-.19.26-.28Z"/><path class="cls-3" d="M75.26,80.38c-1.13.18-2.27.35-3.42.42a8.15,8.15,0,0,1-1.21,0,3.44,3.44,0,0,1-.45,0c-.12,0-.24-.12-.13,0,0-.06,0-.25-.1-.48a1.24,1.24,0,0,0-.63-.7,3.19,3.19,0,0,0-2.39,0,10.28,10.28,0,0,0-3,1.63c-.42.31.27-.2-.13.1l-.59.45a8.33,8.33,0,0,1-.8.51l-.2.1-.2.08c-.14.07.12,0,0,0s.29,0,.36,0,.07.16.1,0c.06-.39-.44-.93-.73-1.12-1-.69-2.52-.39-3.63-.09-.51.14-1.38.6-1.22,1.26s1.21.61,1.69.48c.19,0,.65-.24.86-.14.05,0,.22.65.35.82a2.11,2.11,0,0,0,1.94.68,7.62,7.62,0,0,0,3.79-1.79l.36-.28a2.34,2.34,0,0,1,.3-.25s-.38.26-.17.15a5,5,0,0,0,.48-.32l.33-.2a1.16,1.16,0,0,1,.24-.13l.41-.19.2-.08,0,0c.24-.11.15,0,0,0,0,0-.58-.11-.48-.21-.09.1.17.7.23.8a1.75,1.75,0,0,0,.84.58,7.47,7.47,0,0,0,2.9.27,32.05,32.05,0,0,0,3.91-.45c.58-.1,1.53-.38,1.62-1.09s-.8-.88-1.3-.8Z"/><path class="cls-2" d="M76.41,86.78a12.67,12.67,0,0,0,4-6.49c.12-.54-1.36-.16-1.53-.12s.54-.12.27-.07l-.23.06-.85.18c-.89.18-1.79.35-2.68.5a4.32,4.32,0,0,0-1.11.34c-.13.06-.54.23-.6.41-.17.45,1,.24,1.14.22,1.43-.24,2.85-.53,4.27-.85l-1.53-.13a12.1,12.1,0,0,1-3.76,6.23c-.47.42.42.42.66.4a5.31,5.31,0,0,0,1.13-.26,2.28,2.28,0,0,0,.82-.42Z"/><path class="cls-3" d="M57.08,91.82a15.76,15.76,0,0,0,5.7,1.08A17.93,17.93,0,0,0,66.51,92a26.46,26.46,0,0,0,9.9-5.23c.48-.42-.43-.42-.67-.4a3.67,3.67,0,0,0-1.94.68A21.29,21.29,0,0,1,66,91.31c-.36.12-.87.26-1.3.37-.08,0-.67.16-.33.09a2.8,2.8,0,0,0-.28.06c-.29.09,0,0,.13,0-.59-.13-1.23-.15-1.83-.28-1-.22-2-.5-2.91-.79a3.32,3.32,0,0,0-2,.39c-.28.12-1,.49-.38.68Z"/><path class="cls-2" d="M58.21,81.74a17.8,17.8,0,0,0-3.3,1.33c-.1.05-.38.23-.35.39a2.06,2.06,0,0,1-.15,1.24,2.61,2.61,0,0,1-.28.52,1.76,1.76,0,0,1-.45.46s-.23.16,0,0l-.18.11c-.06,0-.3.15,0,0-.06,0-.16.1-.22.1.28,0,.17-.06,0,0-.32.09.36-.09,0,0s-.24.17,0,0a1.56,1.56,0,0,1-.43.08c.33-.06-.06,0-.11,0l-.37,0h-.66c-.55,0-1.1,0-1.65,0a6.24,6.24,0,0,0-1.6.33c-.35.12-1,.33-1.19.71s.3.73.57.92a12.45,12.45,0,0,0,2,1.11,56.87,56.87,0,0,0,7.18,2.7,3.42,3.42,0,0,0,2-.39c.28-.13,1-.5.38-.68a56,56,0,0,1-6.3-2.34,18.64,18.64,0,0,1-2.27-1.16,3.59,3.59,0,0,1-.58-.42c-.1-.09-.09-.06-.13-.14s0-.18-.05-.19-.09.07,0,0l-.08.09a2,2,0,0,1-.66.33,2,2,0,0,1-.82.19.5.5,0,0,0,.21,0c-.36,0,.22,0,.31,0l1,0a13.23,13.23,0,0,0,3.48-.49c1.34-.38,3-1,3.6-2.37a2.78,2.78,0,0,0,.25-1.61l-.35.4c.18-.1-.2.09-.08,0l.45-.22.58-.25c-.12,0,.09,0,.11,0l.25-.09c.26-.08,1.42-.36,1.34-.79s-1.4,0-1.55,0Z"/></g></g></svg>