<svg xmlns="http://www.w3.org/2000/svg" viewBox="0 0 35.06 57.91"><defs><style>.cls-1{fill:#231f20;}.cls-2{fill:#fff;}.cls-3{opacity:0.84;}.cls-4{fill:#939598;}.cls-5{fill:#00a79d;}</style></defs><g id="Layer_2" data-name="Layer 2"><g id="Drawings"><path class="cls-1" d="M22.82.53a10.71,10.71,0,0,0-11.13,3C6.5,9.38,6.94,19.41,13.6,24c3.62,2.49,8.13,2.47,12.13.94.95-.37.05-.57-.51-.36-6.89,2.64-13.87-1.87-15.36-8.88-1.17-5.51,1.55-14.26,8.08-15a8.55,8.55,0,0,1,3.69.39c.34.12,1.63-.41,1.19-.57Z"/><path class="cls-2" d="M23.93,9.66c.22,1.85-3.05,3.88-5.08,3.88a4,4,0,0,1-3.93-3.63c0-1.86,2.12-4.44,4.15-4.44S23.55,6.28,23.93,9.66Z"/><path class="cls-1" d="M23.57,9.75c.13,1.55-1.79,2.71-3,3.2a3.81,3.81,0,0,1-2.35.28A4.09,4.09,0,0,1,16,11.71c-1.16-1.56-.56-3.42.66-4.74A3.82,3.82,0,0,1,18.7,5.71a4.87,4.87,0,0,1,1.93.21,4.25,4.25,0,0,1,2.94,3.83c0,.27.76.11.73-.19a4.55,4.55,0,0,0-3.05-4A6,6,0,0,0,19,5.26a4.41,4.41,0,0,0-2.57,1.21C15,7.77,14,9.82,15,11.63a4.42,4.42,0,0,0,5.25,1.87,7.8,7.8,0,0,0,2.83-1.6A3,3,0,0,0,24.3,9.56C24.27,9.29,23.55,9.45,23.57,9.75Z"/><path class="cls-1" d="M22,9.62a4.46,4.46,0,0,1-2,3.23,1.84,1.84,0,0,1-1.22.48,1.88,1.88,0,0,1-1.32-.68c-.89-1.09-.5-2.72,0-3.87a7,7,0,0,1,1.09-1.7c.26-.29.57-.65,1-.57A3.36,3.36,0,0,1,22,9.67c0,.21.73.08.73-.2a3.62,3.62,0,0,0-2.6-3.31c-1.36-.37-2.38.92-3,2-.75,1.29-1.4,3.11-.57,4.52a2.44,2.44,0,0,0,3.19.81c1.42-.7,2.94-2.27,3-3.93C22.76,9.23,22,9.39,22,9.62Z"/><path class="cls-2" d="M34.7,10.17c0,2.14-2.3,3.73-4.19,3.73a3.77,3.77,0,0,1-3.67-3.77c0-2.15,1.78-4.36,3.67-4.36A4.85,4.85,0,0,1,34.7,10.17Z"/><path class="cls-1" d="M34.33,10.21a3.66,3.66,0,0,1-2.49,3.24A3.36,3.36,0,0,1,28,12.39a4,4,0,0,1-.21-4.55,4,4,0,0,1,1.65-1.63,2.3,2.3,0,0,1,2,0,4.8,4.8,0,0,1,2.85,4c0,.24.73.09.73-.2a5,5,0,0,0-3-4.19,3.72,3.72,0,0,0-4.42,1.25,4.44,4.44,0,0,0-.52,5.2A4,4,0,0,0,31.45,14c1.79-.42,3.57-1.9,3.61-3.85C35.06,9.81,34.34,10,34.33,10.21Z"/><path class="cls-1" d="M33.82,9a1.42,1.42,0,0,1-.54.84,5.75,5.75,0,0,1-1.29.9,5,5,0,0,1-3.53.56c-.61-.14-1.6-.7-1.18-1.48a1.94,1.94,0,0,1,1.22-.73,8.14,8.14,0,0,1,2.14-.25c.74,0,1.46-.09,2.19-.14.33,0,1-.12,1,.36,0,.26.74.11.73-.2,0-.48-.54-.59-.94-.61a19.18,19.18,0,0,0-2.27.12c-1.47.08-3.3,0-4.47,1.07a1.25,1.25,0,0,0,.56,2.09,5.55,5.55,0,0,0,4.25-.16,7.35,7.35,0,0,0,2-1.19c.36-.3.87-.75.9-1.26C34.56,8.56,33.83,8.7,33.82,9Z"/><g class="cls-3"><path class="cls-1" d="M25.62,20.86a2.16,2.16,0,0,1-.39,1.37,2.18,2.18,0,0,1-1.64.61c-1.29.07-2.86-.21-3.1-1.71a5.47,5.47,0,0,1,0-1.4,2.75,2.75,0,0,1,.43-1.3,1.91,1.91,0,0,1,1.43-.74,3.69,3.69,0,0,1,2.22.36c1,.6,1.05,1.77,1.05,2.81,0,.15.73,0,.73-.2,0-1.06-.09-2.26-1.1-2.87a4.38,4.38,0,0,0-2.52-.45,3.65,3.65,0,0,0-2.14.77,3.56,3.56,0,0,0-.85,3.05c.18,1.72,2,2.07,3.4,2a4,4,0,0,0,2.58-.81,2.26,2.26,0,0,0,.63-1.72C26.35,20.51,25.62,20.62,25.62,20.86Z"/></g><path class="cls-1" d="M19.47,20.34a17.84,17.84,0,0,0,6.14.16c.18,0,.3-.25.05-.21a17.36,17.36,0,0,1-6-.15c-.12,0-.42.16-.22.2Z"/><path class="cls-1" d="M25.46,13.09a.78.78,0,0,0,.2,1.1c.38.31.8.59,1.2.88.22.15.62.36.69.63a1.82,1.82,0,0,1,0,1c-.07.17-.19.34-.31.35a2.22,2.22,0,0,1-1-.17,3.81,3.81,0,0,1-.72-.38,1.79,1.79,0,0,0-.28-.2.67.67,0,0,0-.44.05c-.1,0,0,0-.06,0l-.63.16a2.42,2.42,0,0,1-1.72,0c-.38-.25-.32-.74-.19-1.11a2.51,2.51,0,0,1,.28-.54s.12-.11.14-.16c-.06.15-.54-.08-.54.15s.66-.06.72-.16c.15-.26.55-.31.81-.37a2.69,2.69,0,0,0,.91-.29c.07-.06.14-.11.1-.21s-.12-.13-.16-.21a.5.5,0,0,1,0-.27,1.35,1.35,0,0,1,.5-.68c.13-.1-.12-.13-.17-.12a.79.79,0,0,0-.49.17,1.73,1.73,0,0,0-.52.65.57.57,0,0,0,0,.54s.09.14.12.14S24,14,24,14s-.9.23-1,.27a1.49,1.49,0,0,0-.91.57l.72-.16c0-.36-.75,0-.88.14a2,2,0,0,0-.51.94.91.91,0,0,0,.29,1,2.62,2.62,0,0,0,1.77.15A7.81,7.81,0,0,0,25,16.53l-.47,0a3.37,3.37,0,0,0,1.56.74c.67.14,1.7.1,2.08-.59a1.8,1.8,0,0,0,.1-1.27,1.09,1.09,0,0,0-.37-.37c-.26-.2-.54-.39-.81-.59a9.94,9.94,0,0,1-.83-.62.65.65,0,0,1-.09-.9c.08-.12-.26-.09-.29-.08a.6.6,0,0,0-.42.2Z"/><path class="cls-4" d="M19.9,10.62c0,.49-.82.62-1,.66-.42.06-.6-.7-.46-1.26s1.38-.75,1.69-.68S19.9,10.13,19.9,10.62Z"/><path class="cls-1" d="M19.54,10.66a.51.51,0,0,1,0,.13s0,.05,0,0l0,.06s0,0,0,0l0,0,0,0s0,0,0,0l-.07,0c-.05,0,.07,0,0,0l-.06,0-.06,0c-.06,0,0,0,0,0h0l-.13,0h0l-.09,0h0c.08,0,.05,0,0,0h0s0,0,0,0,0,0,0,0l0-.05a.79.79,0,0,1-.12-.26,1.55,1.55,0,0,1,0-.7.65.65,0,0,1,0-.13s0,0,0,0a.1.1,0,0,1,0-.05s.05-.06,0,0l0,0s0,0,.05,0,0,0,0,0,.08,0,.11-.07,0,0,0,0l.08,0,.07,0s-.08,0,0,0h0l.16,0h.07c.07,0-.08,0,0,0l.15,0,.13,0h.15s.06,0,0,0l-.05,0s0,0,0,0v.08c0,.1-.05.21-.08.31a2.73,2.73,0,0,0-.17.78c0,.16.19.17.31.15a.66.66,0,0,0,.27-.09c.05,0,.14-.09.14-.15a2.8,2.8,0,0,1,.18-.81c0-.15.17-.45,0-.57a.71.71,0,0,0-.32-.07l-.35,0a3.93,3.93,0,0,0-.81.18,1.92,1.92,0,0,0-.69.4,1,1,0,0,0-.27.71,1.36,1.36,0,0,0,.2.81.66.66,0,0,0,.69.22,2.84,2.84,0,0,0,.8-.24c.26-.12.57-.33.58-.65,0-.16-.19-.16-.31-.15a.68.68,0,0,0-.27.1C19.63,10.55,19.54,10.6,19.54,10.66Z"/><path class="cls-1" d="M19.36,30.52a6.13,6.13,0,0,0,8.13,1.32,7.63,7.63,0,0,0,4-5.81c.05-.71.35-2.11-.47-2.45a3.08,3.08,0,0,0-1.21,0c-.46,0-.7,0-.86-.51a1.09,1.09,0,0,1,.84-1.27c.12,0,.41-.1.41-.26V19.2l-.31.24c-.19,0,.55,1.36.69,1.61s.4.76.83.86a5.81,5.81,0,0,0,.81-.21c-.09-.05.08.95.08.95a10.16,10.16,0,0,1,.08,1.23c.1,3.07.1,6-1.89,8.52a8.6,8.6,0,0,1-5.92,3.26,5.21,5.21,0,0,0-4.84,3.27A10.88,10.88,0,0,0,19,42.82c-.07,1-.21,2-.22,3,0,.7.17,1.38.21,2.08.09,1.62-.61,3-.46,4.7.08.79,0,1.89.88,2.21a9.38,9.38,0,0,0,3.17.31,3.63,3.63,0,0,1,1.09,0c.17.07-.12-.21-.1.09a4.65,4.65,0,0,1,0,1.44c-.44,1.92-4.41.43-5.39-.15-1.33-.79-1.5-2-1.41-3.41.18-2.61.65-6.2-1.09-8.43-.69-.89-1.93-1.27-2.26.08a23.21,23.21,0,0,0-.36,3.91,31.15,31.15,0,0,1-.52,3.33,35.8,35.8,0,0,1-.81,4c-.34,1.09-1,0-1.45-.4A2.26,2.26,0,0,0,9,55.13S8.5,55.05,8.2,55c-.8-.21-1.17-.36-1.13-1.22.06-1.23,1.78-.28,2.46-1.07a1.39,1.39,0,0,0,.21-1,17.82,17.82,0,0,1,.08-2.07,13.32,13.32,0,0,1,.32-1.89,11.55,11.55,0,0,1,.63-1.27A2.2,2.2,0,0,0,10.64,45c-.2-.54-.24-.34-.15-.74.27-1.14.83-2.07.66-3.31a3,3,0,0,0-.79-1.62,6.59,6.59,0,0,1-1.71-2.72,5,5,0,0,1,0-2.46c.13-.52.44-1,.58-1.49.3-1.07-.53-1.73-1.33-2.3A11.44,11.44,0,0,1,4.76,27a19,19,0,0,1-2.55-5.15A7.67,7.67,0,0,1,2,19.64a5.17,5.17,0,0,1,.19-1.3c.09-.36.4-.74.41-1.12a4.2,4.2,0,0,0-1.38-2.53c-.38-.35-.45-.2-.43-.87a7.62,7.62,0,0,1,.16-1.26l-.73.14c.34.71,1.07,2.7,2.12,2.37.6-.19.68-1,.74-1.48a3.31,3.31,0,0,0,0-.55c0-.53,0,1,0,1a3.87,3.87,0,0,0,.17,1.32c.07.1.3.07.39,0,.95-.23,1.87-1.67,2.49-2.36l-.66,0a6.81,6.81,0,0,1-.79,3.48c-.1.15.1.22.21.23l1.53.17-.2-.23A2.06,2.06,0,0,1,5,18c-.49.12-.87,0-1.25.42-.66.79,0,1.73.3,2.51a17.46,17.46,0,0,0,3.74,5.75c.53.55,1.2,1.27,2,1.23.46,0,.45-.32.66.29a4.08,4.08,0,0,1,.16,1.39c-.06,1.61.07,4,2.41,3.24,1.23-.39,1.57-1.65,1.58-2.81,0-.49-.13-1-.09-1.47a6.2,6.2,0,0,1,.78-2c.16-.33-.57-.26-.68,0A5.72,5.72,0,0,0,13.75,29c0,.93.32,2.05-.26,2.9a1.14,1.14,0,0,1-2.1-.32A3.77,3.77,0,0,1,11.26,30a6.83,6.83,0,0,0,0-1.43c-.08-.6-.23-1.4-1-1.32-.43,0-.38.23-.78,0a4.65,4.65,0,0,1-1.24-1.1,15.56,15.56,0,0,1-3.37-5.12,14.18,14.18,0,0,1-.67-1.62,1,1,0,0,1,0-.58c.14-.43.54-.36.87-.46A2.86,2.86,0,0,0,6.9,16.67c.07-.16-.06-.22-.2-.23l-1.54-.18.21.24a7,7,0,0,0,.83-3.6c0-.3-.54-.15-.66,0-.46.51-1.49,2-2,2.1l.39,0c-.39-.63.15-2.87-1.36-2.24-.07,0-.21.11-.22.21a5.7,5.7,0,0,1-.07.92,4.66,4.66,0,0,1-.15.62c-.08.21.1.14-.1-.13A12.47,12.47,0,0,1,.91,12.5c-.12-.24-.69-.1-.73.14A5.92,5.92,0,0,0,0,14.26c.06.64.35.56.78,1a3.24,3.24,0,0,1,1,2.17c-.06.44-.36.9-.45,1.36a7.26,7.26,0,0,0-.09,1.68c.14,2.54,1.63,5.05,3,7.1A12,12,0,0,0,6,29.75c.74.68,2,1.11,2.42,2.08.26.64-.15,1.19-.38,1.77a5,5,0,0,0-.3,2.33,5.43,5.43,0,0,0,1,2.68c.85,1.17,1.73,1.73,1.61,3.31a21.86,21.86,0,0,1-.67,2.38c-.07.42,0,.48.19,1,.27.83,0,1.23-.36,1.92a8,8,0,0,0-.5,2.47,17.24,17.24,0,0,0-.09,2c0,1.46-1,.59-1.9.92A1.58,1.58,0,0,0,6.61,55a3.8,3.8,0,0,0,1.75.56l.39.06a1.69,1.69,0,0,1,1.44.92,1.26,1.26,0,0,0,2.24-.41A25.17,25.17,0,0,0,13.49,51a43.09,43.09,0,0,0,.5-4.69,5.87,5.87,0,0,1,.31-2c.13-.26-.36,0-.11,0a.73.73,0,0,1,.31.14,2.87,2.87,0,0,1,.57.53c1.46,1.86,1.29,5,1.12,7.25-.13,1.5-.4,3.16.87,4.25A7.14,7.14,0,0,0,23,57.74c1.56-.43,1.52-1.55,1.35-3,0-.09-.16-.12-.23-.12-.51,0-1,0-1.53,0-.68,0-2.24.14-2.79-.34s-.54-2.4-.51-3.08c.05-1.12.54-2.1.51-3.23,0-.69-.21-1.45-.24-2.09s.1-1.24.14-1.83c.1-1.25.07-2.59.29-3.82a5.89,5.89,0,0,1,2.25-3.61A6.11,6.11,0,0,1,25,36a10.11,10.11,0,0,0,2.09-.57,9.76,9.76,0,0,0,6.05-8.12,25.9,25.9,0,0,0,0-3.84c0-.57,0-2-.58-2.24-.27-.11-.43.13-.65.12-.46,0-.71-.8-.94-1.25s-.49-1.25-1.16-1.08c-.08,0-.31.11-.31.24v2.33l.41-.26c-1,.08-2.54,1.68-1.28,2.56.73.51,1.66-.54,2.18.67a5.55,5.55,0,0,1-.1,2.25A5.46,5.46,0,0,1,30,28.7c-1.26,2.11-4,4.15-6.57,3.67A6.18,6.18,0,0,1,20,30.23c-.17-.2-.87.06-.67.29Z"/><path class="cls-5" d="M19.26,27.08s-.24,2.56,0,2.56"/><path class="cls-1" d="M18.9,27.14c0,.3,0,.61-.07.92a9.32,9.32,0,0,0,0,1.4c0,.16,0,.33.22.35a.85.85,0,0,0,.52-.14c.11-.08.09-.18-.05-.19l.08,0s0,0,0,0l0-.06,0-.19c0-.2,0-.41,0-.61,0-.45,0-.9.08-1.35,0-.11,0-.16,0-.28s-.21-.11-.29-.1A1.31,1.31,0,0,0,19,27s-.14.07-.14.13Z"/></g></g></svg>