<svg id="Layer_1" data-name="Layer 1" xmlns="http://www.w3.org/2000/svg" viewBox="0 0 181.49 102.49"><path d="M61.72,80.39a1.07,1.07,0,0,0-1.35-.22,8,8,0,0,1-1.29.38c-.18,0-.37,0-.53.16a.22.22,0,0,1-.19.06h0A1.7,1.7,0,0,1,58,81h0c-.41.27-.74.42-.9.76,0,.09-.16.08-.26.08s-.21,0-.22,0c-.18.56-.74.39-1.11.57s-.62.54-1,.65-.66.32-1,.39-.33.31-.49.46a9.47,9.47,0,0,1-2.28,1.27.52.52,0,0,0-.27.26,1.38,1.38,0,0,1-1,.81,5.57,5.57,0,0,0-1.88,1.08,6.73,6.73,0,0,1-.74.62c-.23.12-.52.19-.61.55,0,.11-.43.16-.65.28s-.5.19-.62.46a.23.23,0,0,1-.24.14c-.17,0,0-.15-.08-.23a1.42,1.42,0,0,1-.13-1c0-.16.09-.34-.07-.5a.24.24,0,0,1,0-.35.62.62,0,0,0,0-.68c-.25-.65.08-1.25.14-1.88a.81.81,0,0,0,0-.41,2.51,2.51,0,0,1-.06-1.81.45.45,0,0,0-.06-.42.42.42,0,0,1-.09-.41A.93.93,0,0,0,44,80.45c.26,0,.55.26.46-.07a6.38,6.38,0,0,1,0-1.24A8.93,8.93,0,0,1,44.6,77a1.6,1.6,0,0,0-.23-1.19c-.1-.15-.09-.31.09-.36s.09-.54.43-.46a2.16,2.16,0,0,1,0-.57c0-.06-.1-.14-.09-.17.19-.33,0-.66,0-1a2.17,2.17,0,0,0-.43-1.8c.19-.21.3.08.46.06.14-.34.06-.73.26-1.06,0,0,0,0,0,0-.46-.75.27-1.45.1-2.16s.26-1.09.22-1.67c0-.27,0-.48-.39-.58a.47.47,0,0,0,.53-.56,5.08,5.08,0,0,1,.25-1.82c0-.13.13-.5-.22-.6,0,0-.1-.14-.1-.21s.14-.05.21-.06.32-.12.23-.36.12-.67-.1-1c-.06-.09.05-.21.13-.29A1.23,1.23,0,0,0,46,59.71c.57,0,.63-.07.47-.59a2.29,2.29,0,0,1,.13-1.07c.07-.43.4-.8.24-1.3,0-.13.07-.35.18-.47s.09-.38.1-.58,0-.79.16-1c.42-.43.3-1,.63-1.48.1-.13,0-.39.32-.38a.65.65,0,0,1,.6.47A3.89,3.89,0,0,1,49,54a2.63,2.63,0,0,0,.38.79c.28.58.8,1.1.68,1.82-.2.15-.2-.25-.36-.1a.3.3,0,0,0,0,.44c.35.3.21.86.61,1.13-.32.44.41.65.22,1.09a.55.55,0,0,0,.26.74.78.78,0,0,1,.3.54,8.5,8.5,0,0,0,1.48,3,8.23,8.23,0,0,1,.65,1.21c.36.73.88,1.36,1.29,2A34.08,34.08,0,0,0,56.59,70c.57.72.78,1.7,1.62,2.22.19.12.09.39.17.58a11.88,11.88,0,0,0,1.32,2.36c.24.37.29.84.65,1.15.15.14.3.28.49.15s.09-.34,0-.45-.12-.37-.16-.53c-.22-.79-.71-1.47-.89-2.25a1.79,1.79,0,0,0-.56-.85,2.4,2.4,0,0,1-.59-1,6.55,6.55,0,0,0-1.36-2.27,1.85,1.85,0,0,1-.38-.8,1,1,0,0,0-.29-.63,10.22,10.22,0,0,1-.85-1.32c-.34-.49-.71-1-1-1.48a13.45,13.45,0,0,1-1.39-2.42,1.94,1.94,0,0,0-.63-.95c-.06,0-.15-.09-.17-.16-.32-1.07-.87-2-1.15-3.14A11.92,11.92,0,0,0,50.6,56a5.54,5.54,0,0,1-.55-2.63,1,1,0,0,1,0-.23.26.26,0,0,1-.13-.23,1.7,1.7,0,0,0-.36-1.3,6.48,6.48,0,0,0-1-1c-.37-.28-1.22.23-1.34.75s-.32.54-.59.42l-.06.41s0,0,0,0c.19.25.11.57-.13,1a3.12,3.12,0,0,0-.37,1.34,3,3,0,0,1-.17.68,11.94,11.94,0,0,0-.38,1.89,7.65,7.65,0,0,1-.36,2,1.11,1.11,0,0,0-.1.79.89.89,0,0,1-.08.82,1,1,0,0,0,.27,1.3c-.23,0-.25-.3-.43-.16a.19.19,0,0,0-.08.25c.12.21.06.56.51.53a1.65,1.65,0,0,0-.69,1.61c0,.27-.22.52-.25.83s-.07.38.31.58c-.6.37-.34,1-.48,1.52-.27.92-.09,1.88-.29,2.81a1,1,0,0,0,.46,1c-.22,0-.36-.2-.44,0s-.35.64-.14,1c.12.21-.07.36-.1.53a1.41,1.41,0,0,0,0,1.07.2.2,0,0,1,0,.26.09.09,0,0,1-.07,0,.84.84,0,0,1-.06.39.58.58,0,0,1,0,.3,3.41,3.41,0,0,0,0,2.21.26.26,0,0,1,0,.19c-.28.69-.25.82.29,1.31-.61.31-.55.3-.44,1,0,.27-.2.6-.1.93,0,.16,0,.32.14.45s.17.25-.09.28-.09.13-.09.23c0,.65-.08,1.3-.1,1.94s.05,1.32,0,2c0,.36.24.64.21,1a17.52,17.52,0,0,0,0,3.62c0,.39,0,.71-.52.73a.62.62,0,0,0-.54.35.34.34,0,0,1-.18.14,5.1,5.1,0,0,0-1.89,1,5.55,5.55,0,0,0-1.33.87.62.62,0,0,1-.28.17.18.18,0,0,1-.24-.17c0-.12,0-.17.16-.17.46,0,.47-.32.53-.68a3,3,0,0,0-.12-1.42c-.06-.18-.12-.29-.44-.11A1.31,1.31,0,0,0,39,89.39c-.07-.53.18-1,.1-1.57-.16-1,.22-1.93.13-2.91,0-.36.24-.68.15-1a8.48,8.48,0,0,1,.1-2.25c0-.28-.19-.7-.14-.79a2,2,0,0,0,.14-1.21c0-.71.32-1.45-.1-2.14a.17.17,0,0,1,0-.14c.56-.37.2-.92.27-1.39a8,8,0,0,0,.07-1.69,5.58,5.58,0,0,0,0-1.82.67.67,0,0,0,.12.06.47.47,0,0,1,0-.17.94.94,0,0,1,.1-.28.73.73,0,0,1-.08-.39,3.07,3.07,0,0,0-.12-1.56.24.24,0,0,1,0-.18,7.36,7.36,0,0,0,.18-2.43,8.71,8.71,0,0,0,0-3c-.09-.33.22-.67.19-1.06a21.46,21.46,0,0,1,0-2.89,6,6,0,0,1,.13-1.9c.06-.16,0-.28-.05-.41-.06-.28-.29-.52,0-.85.13-.16-.17-.34-.13-.58a10.9,10.9,0,0,0-.06-2.55c0-.32.18-.66-.1-1-.06-.08.06-.16.12-.24a.56.56,0,0,0,.09-.59,1.67,1.67,0,0,1-.14-1.17c.18-.62-.21-1.16,0-1.73,0-.07-.13-.15,0-.27l.37.12a1.11,1.11,0,0,1,0-.51.7.7,0,0,1-.4-.64c.08-1.14-.11-2.28-.06-3.42a5.74,5.74,0,0,0-.18-2.57,1,1,0,0,1,.1-1,.61.61,0,0,0,0-.51,3.56,3.56,0,0,1,.07-2.43s0-.12,0-.14c-.6-.42.14-1-.15-1.45,0,0,.06-.1.13-.11.46-.07.24-.22,0-.36s-.25-.41-.2-.46c.28-.32,0-.6,0-.89l-.06-.61c0-.07,0-.08.08,0s.15,0,.19-.06c.3-.51.72-1,.54-1.65a1.62,1.62,0,0,1-.1-.76c.2.19.41.3.44.53s0,.32.15.35.23-.19.32-.31c.3-.37-.06-.7-.07-1.06s-.82-.9-1.16-.71A.77.77,0,0,1,39,30.5c.68.08.25-.42.46-.59s.08-.2,0-.29a.36.36,0,0,0-.14-.11h0a.46.46,0,0,0-.17,0c-.52.12-.71.39-.78,1-.12,1,.11,1.93,0,2.89a13.41,13.41,0,0,0,0,1.68c0,1-.12,2,0,3.09a16.57,16.57,0,0,1,0,3.07c0,.45.2.93.06,1.32a4.46,4.46,0,0,0,0,1.36c0,.43.31.76.21,1.23a6.49,6.49,0,0,0-.14,1.39,7.81,7.81,0,0,1,.24,3.66.78.78,0,0,1,0,.14,13.94,13.94,0,0,1,0,1.71,7.9,7.9,0,0,1-.07,1.46.22.22,0,0,0,0,.14c.57.83,0,1.72.15,2.58s-.09,1.49,0,2.25a14.75,14.75,0,0,1-.07,2.48,3,3,0,0,0,0,.52,4.19,4.19,0,0,1,0,1.27c-.09.44.06.94,0,1.42,0,.2-.11.35-.12.54a1.78,1.78,0,0,0,.13,1.13c.23.39-.17.8-.1,1.24,0,.2,0,.43,0,.66a1.24,1.24,0,0,1-.09,1.06.23.23,0,0,0,0,.27c.34.5.09,1,.06,1.53,0,.09-.06.2,0,.27a.86.86,0,0,1,.1.28.92.92,0,0,1,0,.37,2.84,2.84,0,0,1-.15.44.45.45,0,0,1,.1.43,1.87,1.87,0,0,0,0,1.05,1.64,1.64,0,0,1-.07.61,4.58,4.58,0,0,0,.08,1.69s0,.12,0,.14a.8.8,0,0,0,0,1.22.21.21,0,0,1-.09.29c-.35.13-.34.42-.29.69.15.89-.2,1.79,0,2.69a.36.36,0,0,1-.06.23,1.46,1.46,0,0,0-.1,1.35,4.44,4.44,0,0,1,.17,1.41c0,.22-.18.44-.21.74-.08.77-.11,1.53-.14,2.3a.63.63,0,0,0,.07.38.32.32,0,0,1-.06.45c-.12.12-.23.36-.13.48.26.34,0,.77.23,1.09a.1.1,0,0,1,0,.09,2.78,2.78,0,0,0-.22,2c0,.49-.19.93-.08,1.39,0,.06.07.15,0,.18s.41.38-.1.39c-.07,0,0,.16,0,.26.12.26,0,.39-.26.41-.45,0-.93,0-1.22.47-.07.12-.26.08-.4,0l-.42-.22a1.51,1.51,0,0,1-.13.33l-.19.24s0,0,0,0a.87.87,0,0,1-.13.15l-.22.19c-.17.2-.43.41-.25.7a.84.84,0,0,0,.9.38,4,4,0,0,0,1.77-.61c.14-.1.36,0,.41.24a2.19,2.19,0,0,1-.12,1.59c0,.1-.19.19-.1.29.48.59.07,1.19,0,1.74a2.86,2.86,0,0,0,0,1.27,3.19,3.19,0,0,1-.12.92,9.37,9.37,0,0,0,0,1.3,5.18,5.18,0,0,1-.29,1.51,6.79,6.79,0,0,0-.13,2.31,2.21,2.21,0,0,1,0,1.08,9.57,9.57,0,0,0-.26,2.39,14.88,14.88,0,0,1-.07,2.11c-.05.44-.34.83-.33,1.32,0,.3,0,.61,0,.91,0,.88-.12,1.76-.1,2.64a15.38,15.38,0,0,0,.3,2,2.76,2.76,0,0,1,.15,1l-.21-.12a2.72,2.72,0,0,1,.15.71,1.94,1.94,0,0,1,.41,1,1.78,1.78,0,0,0,.92,1.22,8.39,8.39,0,0,0,1.66.78,2.41,2.41,0,0,0,2,0,.52.52,0,0,1,.55,0,1.58,1.58,0,0,1,.36-.2l.1,0-.25-.15a4,4,0,0,1,.57-.22c.35-.08.56-.38.88-.53.17-.08.2-.51.32-.78a13.15,13.15,0,0,0,.94-2.73c0-.27.27-.41.27-.66a8.56,8.56,0,0,1,.21-2.42c.1-.38-.11-.78.07-1.13s0-.89.07-1.34-.11-1,0-1.49c.14-1.11,0-2.21.06-3.31a13.79,13.79,0,0,0,0-2.49c-.12-1.07,0-2.16-.12-3.23a4.14,4.14,0,0,0-.19-1.6c0-.06,0-.16,0-.18.38-.29.18-.61.09-1a.6.6,0,0,1,.11-.54.07.07,0,0,1,.07,0c0-.13,0-.26,0-.39a.78.78,0,0,0,0-.16.32.32,0,0,1-.18-.25A4.69,4.69,0,0,1,45,97.48a1.67,1.67,0,0,0,.06-.68,10.61,10.61,0,0,1-.25-2.5c0-.21.06-.49,0-.6a1.3,1.3,0,0,1-.16-1A8.06,8.06,0,0,0,44.67,91c0-.17.12-.27.32-.35A3.32,3.32,0,0,0,46.25,90c.44-.47,1-.75,1.47-1.19s1.34-.8,2-1.29A27.87,27.87,0,0,1,52.24,86c.28-.18.43-.51.79-.58.53-.09.81-.7,1.4-.68,0,0,.12-.08.13-.13.1-.43.48-.42.78-.52.12-.05.24-.05.34-.15a2.64,2.64,0,0,1,1.33-.8c.41-.06.69-.46,1.09-.55a1.07,1.07,0,0,0,.64-.46.86.86,0,0,1,.66-.34c.15-.12.3-.25.46-.36a2.53,2.53,0,0,1,1-.36c.12-.23.37-.18.58-.14s.4,0,.5-.16S61.83,80.51,61.72,80.39ZM44,106.27c0,.08.19.14.05.23-.5.34-.11.63,0,.93.06.14.26.24,0,.32,0,0-.07.15-.06.22.15.85-.36,1.65-.12,2.51.08.27-.1.61-.06.9.15.93,0,1.86,0,2.79a5.24,5.24,0,0,1-.29,1.92,8.08,8.08,0,0,0-.13,1.54c-.09.68-.33,1.32-.44,2a3.39,3.39,0,0,1-.94,1.63,2.44,2.44,0,0,1-2,1,3.34,3.34,0,0,1-1.51-.79c-.3-.23-.79-.26-.89-.74,0-.14-.19-.27,0-.41,0,0,0-.16,0-.23a25.5,25.5,0,0,1-.36-3.48c0-.25.34-.33.2-.67a1.47,1.47,0,0,1-.09-.77c.22-.45,0-1,.2-1.35s.09-.81.14-1.22a3.29,3.29,0,0,1,.12-1c.3-.73,0-1.47.08-2.21.12-1,.14-2.07.28-3.1,0-.14.06-.28-.1-.39a.17.17,0,0,1-.06-.21c.51-1.32.27-2.72.46-4.07.13-.94-.06-1.88.14-2.83a2,2,0,0,0,0-1.49c-.09-.16.1-.54.25-.76a.11.11,0,0,1,.11-.05l0-.17a.76.76,0,0,1,0-.26.27.27,0,0,1-.17-.25A2.92,2.92,0,0,1,39,94.35s0-.08,0-.07c.67,0,.87-.75,1.5-.8.34,0,.51-.42.77-.62a.72.72,0,0,1,.52-.24c.06,0,.16,0,.19,0,.32-.43.92-.38,1.33-.77a13.21,13.21,0,0,0,.12,2.68,3.26,3.26,0,0,1-.09,1.7c0,.05,0,.12,0,.14.47.48,0,1.08.21,1.61.06.15,0,.26,0,.3v0s0,0,0,.07,0,.24,0,.36,0,.15,0,.23a.81.81,0,0,1,.16.75A17.32,17.32,0,0,0,43.7,102a.43.43,0,0,1,0,0c.49.61.08,1.29.17,1.93a2.45,2.45,0,0,0,.33,1.42A.7.7,0,0,0,44,106.27Z" transform="translate(-34.33 -29.49)"/><path d="M112.26,103.57c-.21-.21-.43-.4-.64-.62s-.27-.21-.3-.4-.06-.23-.17-.19c-.51.17-.48-.26-.51-.5a8.5,8.5,0,0,1-.42-1.74,1.41,1.41,0,0,1,.11-.73c.13-.21-.08-.29-.17-.39s-.38-.36-.27-.78a4,4,0,0,0-.13-2,1.3,1.3,0,0,1,0-.91c.14-.31-.23-.56-.2-.9,0-.11-.14-.23.07-.32a.15.15,0,0,0,0-.25c-.23-.19-.1-.46-.17-.66a12.49,12.49,0,0,1-.11-2.73,9.78,9.78,0,0,0-.1-1.42.28.28,0,0,1,0-.18,2.17,2.17,0,0,0,.35-1.81c0-.48.2-.91.16-1.37a3.75,3.75,0,0,1,.14-1.21,1.69,1.69,0,0,0,0-1.09c-.1-.23-.12-.35.19-.28s.35-.18.29-.37a1.47,1.47,0,0,1,.16-1.16.94.94,0,0,0,.06-.47c0-.37.09-.46.34-.39a2.54,2.54,0,0,1,0-.39h0a.62.62,0,0,1-.45-.7A4.86,4.86,0,0,0,110.4,78a4.5,4.5,0,0,1-.2-1.37,1.93,1.93,0,0,0-.58-1.51,1.39,1.39,0,0,0-1.77,0,6,6,0,0,0-1,3c0,.29-.12.29-.31.21l-.19-.09a.44.44,0,0,1,0,.09c0,.08,0,.05,0,.23,0,0,0,0,0,.08l.07,0c.3.17.29.38.33.66.1.76-.36,1.4-.33,2.14,0,.29-.36.33-.55.49s-.35.18-.42.42a.3.3,0,0,1-.34.22.29.29,0,0,0-.38.24c-.05.24.11.3.28.38a1.12,1.12,0,0,0-1.18.33,15.27,15.27,0,0,1-1.34,1,.3.3,0,0,1-.35.08c-.17-.08-.22,0-.31.17a.66.66,0,0,1-.94.36c-.12.24.12.46,0,.69-.35-.27-.66-.2-.92.2a.86.86,0,0,1-.56.32c-.52,0-.72.45-1.08.66s-.41.4-.75.38a.17.17,0,0,0-.2.16c0,.43-.3.51-.62.6a2.38,2.38,0,0,0-1.39,1.14,1.16,1.16,0,0,1-.7.59c-.47.12-.7.6-1,.94A5.61,5.61,0,0,1,92,92.11a9.18,9.18,0,0,1-.79-1.83c-.33-.92-.28-1.91-.69-2.8-.22-.47-.42-1-.62-1.45-.07-.17-.23-.21-.37-.28s-.3-.09-.42-.22A.73.73,0,0,0,88,85.47a.24.24,0,0,1-.3,0,.21.21,0,0,0-.31.13c0,.34-.5.47-.41.89,0,.16-.2.35-.36.28-.36-.17-.48.1-.52.3-.09.49-.47.85-.56,1.33-.14.71-.66,1.25-.86,1.93a21,21,0,0,0-.13-2.24c0-.44-.42-.71-.68-.92a1.9,1.9,0,0,0-2.65.23,10.2,10.2,0,0,1-1.52,1.33,1.92,1.92,0,0,0-.63.78,1.52,1.52,0,0,1-.86.64c-.38.16-1.79-.68-1.72-1.06s-.27-.79-.28-1.21a1.41,1.41,0,0,0-.34-1.15A1.92,1.92,0,0,1,76,86a.68.68,0,0,0-.73-.85.69.69,0,0,0-.47,1,.46.46,0,0,1,.12.43c-.18.6.21,1.15.09,1.77-.07.36-.19.38-.4.29,0,.15,0,.31,0,.46v0a.86.86,0,0,1,.2.64,6.81,6.81,0,0,1-.17.83c-.07.29-.06.68-.25.84a1.89,1.89,0,0,0-.62,1,4.28,4.28,0,0,1-1,1.75c-.09.11-.17.19-.31.14a.29.29,0,0,1-.17-.32c.11-1.13-.31-2.31.31-3.39a.34.34,0,0,0,0-.28,1.21,1.21,0,0,1,.07-.93c.17-.39-.15-1.23-.48-1.25s-.7.28-.9.66,0,.7-.23,1,0,1-.43,1.27a1.43,1.43,0,0,0-.46,1.46c0,.25-.07.29-.23.39s-.57.06-.68.32c-.2.47-.67.61-1,.86a1.33,1.33,0,0,1-.95.27,1.63,1.63,0,0,1-1.35-2.26,2.87,2.87,0,0,0,.2-1.13c0-.11,0-.26,0-.32a2.06,2.06,0,0,0,.32-1.36,4.17,4.17,0,0,0-.23-2,3.7,3.7,0,0,0-1.37-2.05c-.21-.12-.37-.31-.64-.13a.69.69,0,0,0-.39.67c.12.81-.21,1.65.17,2.45a.24.24,0,0,1,0,.18c-.25.3,0,.61,0,.92,0,.08.11.19.14.13.13-.25.45-.21.6-.5.34-.69.12-1.42.25-2.12.72,1.12.18,2.35.33,3.52-.08-.2-.28-.2-.44-.26-.44-.2-.54-.13-.62.33A2.76,2.76,0,0,0,64.29,92,1.43,1.43,0,0,1,64,93.52a14.22,14.22,0,0,0-.9,2c-.22.41-.29.9-.49,1.33s-.42.82-.64,1.23,0,.92-.53,1.08a.2.2,0,0,0,0,.09,3.07,3.07,0,0,1-.75,1.29c-.31.33-.42.81-.87,1.11a2,2,0,0,1-.91.47,1.34,1.34,0,0,1-1.59-1.53c0-.34-.14-.75,0-1a2.75,2.75,0,0,0,.29-1,6.48,6.48,0,0,1,.2-1.32,7.66,7.66,0,0,0,.25-.77,3.19,3.19,0,0,1,.1-.76A4.94,4.94,0,0,0,58.6,94a5.73,5.73,0,0,1,.6-1.67c.07-.18,0-.39.15-.53a1.42,1.42,0,0,0,.45-.91,4.93,4.93,0,0,1,1.39-2.43,4.5,4.5,0,0,0,1-1.34.61.61,0,0,0-.1-.67.54.54,0,0,0-.58-.24,2.09,2.09,0,0,0-1.59,1.37c-.34.94-1.15,1.45-1.75,2.14-.35.41-.76.81-1.14,1.22-.15.16-.22.39-.55.31s-.17.21-.18.36.27.15.19.34c-.43,0-.37.07-.61.38-.41.54-1.06.86-1.46,1.45-.11.16-.44.33-.63.57a2.36,2.36,0,0,1-1.64,1.12,1.88,1.88,0,0,0-1.75.78c-.55.82-.48,1.07.48,1.34.3.09.48-.11.7-.19s.4-.14.62-.19a3.57,3.57,0,0,0,1.29-.65c.51-.38.84-.92,1.32-1.31a3.82,3.82,0,0,0,1-.89,6.83,6.83,0,0,1,2.59-2.47c-.22.15-.14.39-.23.58a13.06,13.06,0,0,1-.69,1.63,10.1,10.1,0,0,0-.9,3c-.12.43-.06.89-.17,1.33-.06.23-.33.33-.29.63a6.88,6.88,0,0,1,0,1.2,3.36,3.36,0,0,0,.45,1.89,2.93,2.93,0,0,0,2,1.34.39.39,0,0,0,.24,0c.38-.21.81-.1,1.21-.18.11,0,.27,0,.31-.08.17-.44.67-.5.95-.83a2.61,2.61,0,0,0,.86-1.47.37.37,0,0,1,.09-.21c.52-.44.64-1.11,1-1.64a5.09,5.09,0,0,0,.49-1.25c.18-.55.43-1.07.61-1.62s.48-.93.66-1.43c.1-.29.61-.44.73-.2.22.47.72.42,1,.68a1.57,1.57,0,0,0,1.49.28c.52-.15,1.13-.18,1.5-.6s.9-.7,1-1.3c0-.14.22-.22.24,0a3.69,3.69,0,0,0,.31.8c.48,1.35,1.54,1.66,2.54.69.24-.23.55-.38.7-.7.24-.52.49-1,.75-1.53.09-.2.37-.31.34-.56-.06-.41.18-.75.23-1.13s.17-.4.43-.12a2.69,2.69,0,0,0,1.55.59,1.06,1.06,0,0,0,1-.27c.19-.22.3-.16.46-.09l.26.11a.76.76,0,0,1,.21-.38c-.11-.07-.15-.14,0-.26.35-.21.44-.71.93-.8.17,0,0-.5.4-.46.28-.73,1.1-.74,1.59-1.2.11-.1.25-.3.44-.09s.32.33.25.62a5.61,5.61,0,0,0-.26,1.92A8.78,8.78,0,0,1,83,92.54l-.22-.1a4.26,4.26,0,0,1,.1.49,1.34,1.34,0,0,1,.49.83,1,1,0,0,0,1.21.56,1.12,1.12,0,0,1,.72-.16l.37-.3-.1,0c-.49-.23-.54-.43-.29-.91a13.79,13.79,0,0,0,1-2.62.8.8,0,0,1,.15-.29,1.12,1.12,0,0,0,.34-.76c0-.08,0-.19,0-.23.7-.6,1-1.52,1.78-2.07.15-.11.25-.1.33,0a2.35,2.35,0,0,1,.55,1.31,2.36,2.36,0,0,0,.33,1.63.31.31,0,0,1,.07.2,6.53,6.53,0,0,0,1,2.6,2.32,2.32,0,0,1,.46,1,.93.93,0,0,0,.57.74.51.51,0,0,0,.66-.18c.48-.54.7-1.26,1.26-1.74a3.37,3.37,0,0,1,.36-.3,1.74,1.74,0,0,0,.73-.74c.18-.42.7-.61.78-1.11.65,0,.78-.82,1.38-.93a.38.38,0,0,0,.27-.25.46.46,0,0,1,.35-.3c.54,0,.74-.36.84-.81,0-.19.07-.31.26-.1s.22.06.34-.08c.31-.32.58-.69,1.08-.75.24,0,.25-.31.41-.45a10.3,10.3,0,0,1,1.14-.61,4.66,4.66,0,0,1,.69-.53,2.3,2.3,0,0,1,.64-.28s.12,0,.13,0c.27-.67,1.1-.47,1.49-1a.18.18,0,0,1,.26,0c.09.1,0,.17,0,.25a7.54,7.54,0,0,0-1.13,3.53.57.57,0,0,1-.12.35c-.21.27-.4.54-.2.91.11.2-.06.42-.13.59-.13.35,0,.76-.4,1.08a1.11,1.11,0,0,0,0,1.06,7,7,0,0,1,.5,1c.16.43.65.52,1,.6a.88.88,0,0,0,.93-.53,13.5,13.5,0,0,0,.77-1.9,3,3,0,0,1,.16-.79c.09-.16-.09-.42-.29-.49s-.15.22-.25.29a7.08,7.08,0,0,0-.84.7c-.17.14-.32.3-.49.47a18.13,18.13,0,0,1,1.13-4.89,1.74,1.74,0,0,1,0,1,1.28,1.28,0,0,0-.09.93,2.66,2.66,0,0,1-.19,1.1c-.07.25-.17.43.19.54s.32-.14.35-.33c.06-.42.45-.73.38-1.19,0-.06.11-.18.22-.15s.1.27.15.4a.17.17,0,0,0,.2-.21c-.18-.43.19-.7.28-1.05a9.71,9.71,0,0,1,.21-1.22c.22-.54.12-1.13.34-1.66a.31.31,0,0,0,0-.19,1.79,1.79,0,0,1,.11-1.22,4.44,4.44,0,0,0,.18-1.3c0-.54.06-1.08,0-1.62,0-.22.24-.39.22-.61a.58.58,0,0,1-.1-.21h0a.66.66,0,0,1,.21-.69s0-.06,0-.09a1.45,1.45,0,0,1,0-.38.81.81,0,0,1,.07-.43,1.32,1.32,0,0,0,.23-.9c0-.1,0-.26.13-.26s.15.13.18.25a3.79,3.79,0,0,0,.53,1.46.69.69,0,0,1-.07.78l0,0a.63.63,0,0,1-.32.61c.15.17.15.43,0,.94a.44.44,0,0,0,0,.37.39.39,0,0,1,0,.49c-.24.35,0,.3.27.32a.5.5,0,0,0-.49.53,9,9,0,0,1-.29,2.26,6.84,6.84,0,0,0,.14,2.63c.07.18,0,.24-.2.23-.36,0-.34.17-.23.38a.48.48,0,0,1,0,.62c-.2.28,0,.68,0,1,0,1-.12,2.08-.06,3.13a.76.76,0,0,1-.08.32,1.69,1.69,0,0,0,.05,1.11,5.85,5.85,0,0,1,.06,1.25,11.28,11.28,0,0,1,.09,2c0,.09.08.2.12.3s.16.26.13.3c-.34.43.1.77.15,1.15s.32.78.37,1.12a6.84,6.84,0,0,0,.78,1.84,2.85,2.85,0,0,0,1.48,1.42,2.83,2.83,0,0,1,.77.27.2.2,0,0,0,.3,0C112.45,103.69,112.31,103.62,112.26,103.57Z" transform="translate(-34.33 -29.49)"/><path d="M215.64,86.53c-.4-.17-.54-.82-1.14-.64,0,0-.07-.06-.09-.1s-.25-.16-.41-.19a2.17,2.17,0,0,1-1.49-.57.47.47,0,0,0-.48-.12,2.31,2.31,0,0,1-1.07-.09,1.51,1.51,0,0,0-1.28-.18c-.47.14-1-.11-1.53.12s-1.13.11-1.66.34a8.76,8.76,0,0,0-2.19,1c-.27.21-.59.49-1.06.19.13.54-.1.52-.44.39a2.32,2.32,0,0,0-1,0,1.18,1.18,0,0,0-1,.54,2.27,2.27,0,0,1-.7.59c-.14.09-.36.1-.43-.06a1.94,1.94,0,0,1-.26-.66,1.73,1.73,0,0,0-.31-1,7.11,7.11,0,0,0-1.45-1.64c-.22-.13-.49-.48-.53-.46-.31.17-.52,0-.76-.12a1.12,1.12,0,0,0-.94.59c-.14.5-.28,1-.37,1.5s-.37.83-.45,1.29a1.89,1.89,0,0,1-.15.7c-.59.85-.52,2-1.2,2.76-.26.29-.28.69-.61,1s-.94.41-.74,1.12c0-.37-.15-.37-.39-.28a5.5,5.5,0,0,1-.89.39,1.94,1.94,0,0,1-1.75-.5c-.07-.07-.14-.13-.12-.25.09-.65.15-1.33.27-2a3.42,3.42,0,0,1,.83-1.87,3.12,3.12,0,0,0,.55-.89c.2-.35.39-.7.56-1.06l0,0c.75-.35.74-1.2,1.17-1.76.25-.34.16-.77.31-1.16a1.42,1.42,0,0,0-.23-1.24c-.31-.46-.81-.55-1.14-.91s-.91-.21-1.36-.35a9.85,9.85,0,0,0-1.64-.08c-.68-.09-1.23.53-1.92.31,0,0-.06.07-.1.1a1.75,1.75,0,0,1-1.08.35,1.74,1.74,0,0,0-1.17.45,1.27,1.27,0,0,1-1.05.38c-.09,0-.23-.08-.24,0,0,.38-.34.38-.57.52a4.65,4.65,0,0,0-1.67,1.31c-.29.53-.79.71-1.17,1.05a4.79,4.79,0,0,0-1,1.12c-.13.21-.23.24-.34.19l-.12.33a.94.94,0,0,1-.18.25s0,0,0,.08a7.43,7.43,0,0,0-.72,2c0,.12-.08.31-.27.28s-.45-.07-.42-.24c.05-.39-.26-.65-.27-1s-.21-.75-.08-1.17c.07-.22-.12-.5-.28-.7s0-.32.14-.42l.18.08s0-.07,0-.1a.37.37,0,0,1-.12-.22.61.61,0,0,1,0-.14h0v-.11s0-.06,0-.09a1.41,1.41,0,0,1-.39-.38c-.19-.29-.13-.72-.51-.91,0,0,0,0,0,0,.12-.5-.27-.73-.55-1a.85.85,0,0,0-1.34.35c-.1.28-.24.34-.43.29-.12.13-.23.26-.35.38l.1,0c.2.11.33.3.13.51a1.09,1.09,0,0,0-.24.88,1.69,1.69,0,0,1-.29.83,2.92,2.92,0,0,1-.48.88,2.16,2.16,0,0,0-.5.84,6.36,6.36,0,0,0-.34,1.28c-.06.3-.3.59-.36.83a2.42,2.42,0,0,1-.5.89,6.79,6.79,0,0,0-.59,1.21,11,11,0,0,1-.75,1.33s-.12.27-.21,0a3,3,0,0,1-.13-1.6,8.7,8.7,0,0,0,.09-1.84,4.27,4.27,0,0,1,.24-1.93,1,1,0,0,0,.05-.61c-.11-.42.16-.86-.11-1.28-.06-.08,0-.26,0-.37.25-.49,0-1,0-1.48s-.86-.88-1.29-.84c-.85.1-1.05.31-1.11,1.18,0,.16,0,.36-.21.38-.44,0-.59.37-.77.69a2.48,2.48,0,0,1-1.08,1.18.48.48,0,0,0-.28.31.35.35,0,0,1-.43.21c-.17,0-.25-.17-.24-.37s0-.54,0-.81c0-.77-.09-1.53-.17-2.29a5.46,5.46,0,0,0-.95-2.16c-.16-.28,0-.63-.28-.86-.61-.49-.87-1.35-1.69-1.6a.33.33,0,0,1-.24-.33.6.6,0,0,0-.6-.58,1.33,1.33,0,0,1-.82-.32.77.77,0,0,0-.5-.16c-.9.14-1.82,0-2.71.14-.43.1-.95.09-1.17.61-.6-.11-.75.4-1,.74-.07.08-.24.07-.36.1s-.23.08-.14.23-.11.25-.16.36c-.23.48-.94.53-1,1.14a.39.39,0,0,1-.12.19c-.23.32-.65.54-.48,1,0,.15-.13.11-.19.16a1.14,1.14,0,0,0-.5.81,2.8,2.8,0,0,1-.52,1.56c-.16.22-.06.61-.44.71.26.43-.43.75-.12,1.22a.4.4,0,0,1-.18.54c-.51.16-.35.49-.24.79a.71.71,0,0,1-.06.62,5.18,5.18,0,0,0-.68,2.55,1.16,1.16,0,0,1-.45.92c-.47.44-.43,1.1-.65,1.65-.09.24-.2.52-.46.44s-.27-.37-.17-.66a2.84,2.84,0,0,0,0-1.73c-.07-.26.16-.37.12-.58-.14-.71.26-1.35.27-2,0-.08,0-.18,0-.24-.52-.74,0-1.54-.13-2.29-.09-.42.22-.75.3-1.14a7.06,7.06,0,0,0,.15-2c-.05-.51-.35-1.09-.09-1.53.34-.6-.2-1.24.23-1.78a.13.13,0,0,0,0-.13c-.49-.34.1-.78-.11-1.15,0,0,0-.07,0-.07.62-.16.21-.39.1-.69a1.36,1.36,0,0,1-.06-1.12c.22-.4,0-.84,0-1.25a1.43,1.43,0,0,1,.09-.77c.1-.2.24-.38,0-.6a.38.38,0,0,1-.08-.36c.23-.57-.1-1.18.11-1.75.08-.22-.19-.41-.06-.68s.12-.21.21-.2a1,1,0,0,1,.1-.56.86.86,0,0,1-.43-.85,8.38,8.38,0,0,0-.2-2.37,8.27,8.27,0,0,1-.34-2.6,1,1,0,0,0-.13-.41,4.3,4.3,0,0,1-.38-1.37,7.76,7.76,0,0,0-.66-2,6.23,6.23,0,0,0-1.29-1.63.37.37,0,0,0-.25-.12,2.18,2.18,0,0,0-2.21.83c-.07.11-.15.09-.25,0a1.25,1.25,0,0,1-.4-.95,1.59,1.59,0,0,0,0-1.47.59.59,0,0,1,0-.37c0-.44.17-1,0-1.29a7.12,7.12,0,0,1-.49-2.38c-.11-.6,0-1.26-.15-1.89-.16-.89-.22-1.79-.33-2.68,0-.24-.34-.38-.27-.65A3.89,3.89,0,0,0,139,48a3.75,3.75,0,0,0-.07-1.39,2.84,2.84,0,0,1-.19-1.4,1,1,0,0,0-.16-.68,1.63,1.63,0,0,1-.17-1c0-.33.14-.38.42-.24l.14.07a2.08,2.08,0,0,1-.19-.7s0,0,0-.08A3.36,3.36,0,0,0,138,42s0-.08-.05-.13a11.6,11.6,0,0,0-.47-2.33,17.12,17.12,0,0,0-.73-2.51c-.21-.48-.15-1.09-.36-1.51A17.6,17.6,0,0,0,135,32.43a4,4,0,0,0-.82-.92c-.37-.2-.61-.51-1-.72a4.55,4.55,0,0,0-3.36-.81,10.32,10.32,0,0,0-2.45,1.14c-.94.41-1.35,1.46-2.26,1.94,0,0,0,0,0,0,.14.86-1,.84-1.07,1.56,0,0,0,0,0,0-.43-.06-.46.27-.57.56a1,1,0,0,1-.53.59s0,0,0,0l-.26.33a1.1,1.1,0,0,1-.25.19.49.49,0,0,1,0,.52,3.06,3.06,0,0,0-.54,1.35c0,.11-.09.17-.19.2a.27.27,0,0,0-.2.24c0,.28.35.75-.34.73,0,0,0,.09,0,.13a1.68,1.68,0,0,1-.44.88.77.77,0,0,0-.21.69,1,1,0,0,1-.17.74,7,7,0,0,0-.64,2.36.86.86,0,0,0,.12.6c.25.4.27.4-.21.6-.11,0-.27.1-.19.21.29.44-.15.72-.22,1.07a.89.89,0,0,0,0,.46,1,1,0,0,1,0,.61,5,5,0,0,1-.33,1.28.53.53,0,0,0,.14.69c.06,0,.12.19,0,.19-.49,0-.26.4-.29.61-.07.53-.2,1.05-.24,1.59a5.54,5.54,0,0,1-.16,1.76,1,1,0,0,0,.18.72c.39,0,.22.17.11.29-.28.33-.53.65-.22,1.09a.31.31,0,0,1,0,.28,2.39,2.39,0,0,0-.28,1.39c0,.32-.19.42-.46.36v.64l.42.19a6.9,6.9,0,0,1,.14,1.36s0,0,0,0c-.39.16-.34.52-.37.85s-.38.65.12.9a.14.14,0,0,1,0,.21c-.33.41-.12.88-.19,1.32,0,.26.33.28.29.51-.07.51-.19,1-.25,1.53s-.55,1,.07,1.5c.06,0,0,.11,0,.18a11,11,0,0,0-.37,1.92c0,.34.18.6.14.93a3.94,3.94,0,0,0,.1,2.07s0,.1,0,.12c-.32.25-.16.55-.08.83,0,.08.09.15,0,.18-.28.08-.18.29-.2.48a10.73,10.73,0,0,1,0,1.51c0,.19-.21.4-.15.63a8.27,8.27,0,0,1,.08,2.33,1.21,1.21,0,0,0,.13.81.32.32,0,0,1,0,.4,1,1,0,0,0-.16.86,1.43,1.43,0,0,1-.09.93c-.22.43,0,.62.45.69-.67.19-.42.76-.6,1.13l-.29-.14a3.4,3.4,0,0,1,0,.45s0,.06,0,.09a1.12,1.12,0,0,1,.58,1.45,1.37,1.37,0,0,0,0,1.19.85.85,0,0,1-.31,1.05.2.2,0,0,0-.09.25A3.85,3.85,0,0,1,117,89a.3.3,0,0,0,.25.31c.15.06.33.09.43.27-.15.07-.21-.06-.29-.12s-.31-.18-.43,0a.31.31,0,0,0,.12.46c.47.18.25.42.08.65a.84.84,0,0,0-.12,1,1.16,1.16,0,0,1,0,.8,6.19,6.19,0,0,0-.14,1.83,3,3,0,0,1-.05,1.44c-.11.28.12.68.07,1.06a2.19,2.19,0,0,1-.09.5,1.85,1.85,0,0,0,0,1.39c.12.36.06.77.37,1.08.13.13-.06.14-.12.19-.21.2-.43.36-.22.72.08.13,0,.38-.06.56s-.16.41-.1.45c.37.33,0,.78.22,1.12a.54.54,0,0,1-.19.68c-.14.14-.24.26-.08.45s0,.2-.09.25-.17.23-.1.36a2.61,2.61,0,0,1,.24,1c0,.31-.16.52-.14.8a2.94,2.94,0,0,1-.08,1.14c-.06.2-.23.49.21.51a.07.07,0,0,1,0,0,.18.18,0,0,0-.08,0,2.31,2.31,0,0,0-.24.29,3.07,3.07,0,0,0-.15.46,1.72,1.72,0,0,1,0,.64l0,0c.07,0,.17.1.17.15a6.74,6.74,0,0,1,0,1.19c-.1.54-.17,1,.3,1.29-.14.25-.6.16-.56.4.11.63-.34,1.31.18,1.89-.17.63,0,1.35-.2,1.89s-.19.55.1.77.11.4.29.54,0,.18-.1.19c-.26,0-.32.14-.24.39a.24.24,0,0,1-.15.31c-.37.16-.25.41-.07.61a.37.37,0,0,1,0,.55,1.2,1.2,0,0,0-.22,1c0,.37.36.76,0,1.13-.07.08.08.18.07.26,0,.38.42.66.27,1.06a3.08,3.08,0,0,0-.07,1.28,12.75,12.75,0,0,0,.16,1.4,18.61,18.61,0,0,1,.29,2.68c0,.57.14,1.11.18,1.67a3.69,3.69,0,0,0,.58,1.4,1.34,1.34,0,0,0,2,.25,4.36,4.36,0,0,0,.92-1.77,4.21,4.21,0,0,0,.25-1.37c0-.26-.18-.58,0-.79s.16-.72.14-1.09c.13-.13.42,0,.46-.24.11-.73.23-1.46.33-2.2,0-.41-.23-.91.23-1.25,0,0,0-.13,0-.18.21-.51-.19-1.07.15-1.58a1,1,0,0,0,0-.77,1.24,1.24,0,0,1,.07-.94c.14-.21-.06-.33-.23-.38s-.39-.08-.39.13c0,.49-.54.58-.63,1s-.27.67-.08,1c.08.14.14.27,0,.38a.46.46,0,0,0-.16.43c0,.53-.3,1-.32,1.53a9.85,9.85,0,0,1-.27,1.21c0,.2-.36.22-.24.42a1.42,1.42,0,0,1,.06,1c0,.37-.06.82-.48,1-.13.07-.1.22-.12.35a2,2,0,0,1-.49,1.28c-.11.1-.19.21,0,.37s0,.2-.11.26-.13.06-.16,0,0-.16,0-.25,0-.25-.08-.37a4.25,4.25,0,0,1-.12-1.54,1,1,0,0,0-.3-.89c-.09-.09-.18-.22,0-.27.47-.16.2-.39.08-.61a1.12,1.12,0,0,1-.11-.54,16.19,16.19,0,0,0,0-2.09c0-.31-.38-.6-.18-.93.38-.66,0-1.34,0-2s-.25-1.47.12-2.19a.37.37,0,0,0,0-.29c-.18-.44.07-.84.13-1.25,0-.1.08-.2.06-.28a5.57,5.57,0,0,1,0-1.29c0-.4-.41-.82,0-1.2,0,0-.07-.12,0-.17.11-.47-.3-.9,0-1.42a1.19,1.19,0,0,0,0-1.06c-.13-.24.1-.41.2-.57a.13.13,0,0,1,.11-.07,1.85,1.85,0,0,1,.08-.47c-.17-.09-.27-.22,0-.5.09-.11,0-.25-.08-.35a1,1,0,0,1-.27-.54c.14.12.18.28.35.24a.14.14,0,0,0,.11-.18A2.7,2.7,0,0,1,118,107s0,0,0,0c.06-.47-.27-1,.21-1.4.07-.06,0-.22.07-.32.16-.47-.5-1,.13-1.45,0,0,0-.09,0-.13-.18-.23-.12-.52-.18-.78s.07-.46.26-.68-.39-.39-.25-.73,0-.94.31-1.34c.08-.09,0-.18-.05-.26-.25-.33,0-.69-.06-1s.37-.72.1-1.17c-.07-.1-.1-.5.09-.61.36-.19.13-.28-.15-.46.52.07.85.2,1.19-.23.17-.21.49-.31.53-.67,0-.12.16-.15.25-.21.32-.24.72-.43.61-1a.24.24,0,0,1,.19-.3c.38-.07.37-.38.38-.63s.3-.67,0-.85a.44.44,0,0,0,.44-.37c.09-.31.53-.54.27-1,0-.06.06-.17.16-.22.39-.18.44-.72.88-.86.1,0,0-.16,0-.25a1.15,1.15,0,0,1,.13-.91c.2-.31.79-.44.43-1-.07-.11.12-.1.19-.14.24-.16.51-.28.4-.67-.07-.24.08-.22.25-.13l.24.11a.76.76,0,0,1,.11-.16,1,1,0,0,1,.27-.18l-.07,0c-.38-.18-.34-.49-.11-.83s.5-.57.72-.88a.23.23,0,0,0,0-.18c-.14-.33-.19-.55.33-.51a.42.42,0,0,0,.36-.52c-.1-.32.09-.38.28-.47s.24-.11.28-.24c.18-.62.78-1,1-1.61a.59.59,0,0,1,.3-.36c.09-.06.22-.21.2-.25-.2-.34.1-.5.24-.7s.47-.43.48-.8a.27.27,0,0,1,.23-.22c.35,0,.48-.12.28-.49-.09-.16.08-.28.27-.3.5,0,.68-.41.75-.8.1-.55.23-1,.8-1.26.16-.07.15-.2.11-.37s-.38-.41-.52-.65c.4-.08.93.24,1-.47,0-.1.25-.15.32-.26.21-.34.73-.5.53-1.09-.09-.25.36-.33.53-.54s.18-.72.74-.64c.16,0-.05-.37-.26-.6.56,0,.75-.33.75-.83a.41.41,0,0,1,.37-.33,1.08,1.08,0,0,0,1-1c0-.09.07-.18.09-.27.08-.48.26-.82.83-.87.29,0,.64-.14.18-.51a.22.22,0,0,1,0-.3.26.26,0,0,1,.33-.13,3.2,3.2,0,0,1,.43.17.75.75,0,0,1,.4-.34l-.13-.11a.91.91,0,0,1,.1-.93.81.81,0,0,0,.19-.46c0-.43.44-.61.54-1,0-.09.23,0,.2.08-.23.35.11.59.13.88a3.89,3.89,0,0,0,.33,1.52c.1.21-.15.21-.36.25a1,1,0,0,1,.16.87,1.15,1.15,0,0,1,.23.77,1.23,1.23,0,0,0,.17.52,1,1,0,0,1,.14,1,1.1,1.1,0,0,0,0,.76,4.47,4.47,0,0,1,.16,1.54c0,.1,0,.23,0,.28.38.39.17.79,0,1.2.5,0,.49,0,.43.52a10.87,10.87,0,0,1-.07,1.89c-.06.19.1.39.37.44-.2,0-.45-.08-.29.32a7.23,7.23,0,0,1,.36,1.3c.08.48.15,1,.21,1.5,0,.2,0,.42.25.53a.15.15,0,0,1,.07.21c-.32.69.15,1.34.13,2,0,.25.18.51.06.79a.19.19,0,0,0,0,.18c.66.5.22,1.2.32,1.8a5.34,5.34,0,0,0,.26,1.17,2.57,2.57,0,0,1,.26,1.38,1.35,1.35,0,0,0,.25,1.27.39.39,0,0,1,0,.22c-.58.26,0,.51,0,.77a.61.61,0,0,0,.45.71,1.19,1.19,0,0,0,.42,1.82c.23.12.38.23.31.55a2.41,2.41,0,0,0-.23-.27.47.47,0,0,0-.58.05c-.2.14,0,.27.06.41s.36.36.08.61a.27.27,0,0,0,.06.22c.31.17.34.56.64.75a.7.7,0,0,1-.62-.09l-.28-.13c.05.11.11.23.15.34a.6.6,0,0,1,0,.29.89.89,0,0,1,.53,1.09c-.11.41.29.78.09,1.2,0,0,.08.17.14.18.56,0,.82.48,1.12.86,0,0,0,0,.08,0-.08-.35.26-.78-.21-1.07-.07,0-.07-.07,0-.13a1.2,1.2,0,0,0,.28-.69c0-.3.15-.31.38-.21s.65.27,1,.42c0-.08-.12-.14-.16-.22a.21.21,0,0,0,0-.06h0a2.12,2.12,0,0,1-.11-.21,1,1,0,0,1-.05-.29.41.41,0,0,1,.05-.59c.58-.35.35-1,.59-1.43,0-.08,0-.2.06-.28.27-.25.15-.48-.14-.79.32.08.44,0,.51-.23s.37-.65.33-1.06a.43.43,0,0,1,.19-.37c.25-.18.3-.35.1-.63s.19-.39.24-.63a17,17,0,0,0,.77-3.15c0-.5.38-.75.65-1.06a.8.8,0,0,0,.11-.83c-.18-.28,0-.37.12-.47.37-.3.4-.74.56-1.14a3,3,0,0,0,.22-1.17.16.16,0,0,1,.08-.1c.78-.21.9-.88,1.06-1.52,0-.1,0-.24.14-.22.41.07.5-.2.68-.49a2.8,2.8,0,0,1,1.54-1c.07,0,.21,0,.22,0,.31-.77,1-.43,1.52-.56,1.08-.27,1.86.35,2.7.78.64.32.88,1.06,1.27,1.63s.3,1.45.82,2c-.3.78.37,1.49.15,2.32a1.63,1.63,0,0,0,.31,1.57c.13.14,0,.23,0,.35-.05.55-.66.9-.47,1.55.08.26-.27.66-.52.65-.51,0-.59.4-.74.65a1.87,1.87,0,0,1-1.07.94.61.61,0,0,0-.32.26,2.09,2.09,0,0,1-1.11.87.25.25,0,0,0-.15.11c-.25.58-.9.8-1.19,1.34a3,3,0,0,1-.67.71,12.77,12.77,0,0,0-2,2.48,2.57,2.57,0,0,0-.64,1.5c0,.24-.31.53-.54.73s-.32-.08-.48-.15l-.48-.25a4,4,0,0,1,.2.58,2.19,2.19,0,0,1,.94.66c.31.4.27,1.05,1,1.2.33.08.61.23.95.08a1.2,1.2,0,0,1,.93,0h0a4.43,4.43,0,0,1,.59-.18l-.09,0c-.1,0-.27-.06-.25-.25s.17-.13.28-.18a2.62,2.62,0,0,0,1.31-.88,1.64,1.64,0,0,1,.5-.61c.57-.33.75-1,1.27-1.37a.16.16,0,0,0,.07-.11,1,1,0,0,1,.54-.78c.19-.12.43-.28.42-.5,0-.69.58-1.1.79-1.7s.68-1.25.95-1.9a5.58,5.58,0,0,0,.68-1.87c0-.45,0-1.13.72-1.3.07-.46.51-.6.78-.87s.28-.62.71-.82.62-.82,1-1.11.41-.8.79-1.07c.11-.08.21-.2.34-.13a.38.38,0,0,1,.19.31,22.23,22.23,0,0,1-.3,6.12,2.33,2.33,0,0,0,1.79,2.74c.32,0,.59,0,.75-.32s.24-.57.45-.67a1.64,1.64,0,0,0,.78-1.23,16,16,0,0,1,.9-2.07,13,13,0,0,0,1.09-2.61c.05-.33.33-.54.39-.87a2.53,2.53,0,0,1,.83-1.76.49.49,0,0,0,.14-.4c0-.09,0-.21.14-.21a.17.17,0,0,1,.17.2c-.1.35.08.58.23.87a.85.85,0,0,1,.16.67,1.08,1.08,0,0,0,.23,1,2.28,2.28,0,0,1,.27.77,12,12,0,0,0,.13,1.38,11.47,11.47,0,0,1,.23,2,5.21,5.21,0,0,1-.06,1.36c-.05.51,0,1-.08,1.53a1.36,1.36,0,0,0,.8,1.61c.28.13.52.26.79.08s.54-.23.36-.62a.31.31,0,0,1,.1-.3c.24-.13.17-.26.05-.42a.29.29,0,0,1,0-.32c.27-.42,0-.8-.06-1.19a1.12,1.12,0,0,1-.09-.37,13.92,13.92,0,0,1,.23-1.93,2.88,2.88,0,0,1,.8-1.9c.22-.19,0-.51.31-.64a.71.71,0,0,0,.37-.58.68.68,0,0,1,1-.5,1.77,1.77,0,0,1,.15-.42.63.63,0,0,1,.12-.81c.14-.12.26-.18.26-.4s.16-.06.25,0,.23.07.28-.07a1.63,1.63,0,0,1,1-1.08c.15-.05.24-.29.33-.46a1.49,1.49,0,0,1,.88-.67,5,5,0,0,0,2.38-1.16.42.42,0,0,1,.5-.09,1.58,1.58,0,0,0,1.62-.33c.06,0,.13-.12.21-.1.73.2,1.5-.14,2.24.18.21.08.53-.07.79.09s.22.21.17.31c-.34.59-.32,1.34-.92,1.83a1.14,1.14,0,0,0-.23,1.09c0,.24,0,.4-.28.29a.25.25,0,0,0-.29.07A7.78,7.78,0,0,0,188,88a1.43,1.43,0,0,0-.32,1.31s0,.12,0,.14c-.52.37-.26,1-.54,1.51s-.39.25-.59.11a.74.74,0,0,1,.11.24,8.33,8.33,0,0,1,.17.84,2.75,2.75,0,0,1,.87,1.1c.06.16.13.26.31.24a.81.81,0,0,1,.7.35c.09.09.2.21.31.21a6.24,6.24,0,0,1,1.76.45c.15,0,.28.09.41,0s.43-.07.61.06a2.26,2.26,0,0,0,.26.16,2.31,2.31,0,0,1,.51-.22.32.32,0,0,1-.25-.22c.32-.19.88-.17.73-.78,0,0,.06-.1.09-.1.43,0,.43-.37.56-.64a3.19,3.19,0,0,1,.52-.74,3.18,3.18,0,0,0,1.06-2.16.59.59,0,0,1,.13-.37c.18-.29.49-.54.46-.92s.39-.8.28-1.27a.11.11,0,0,1,.11-.14c.33-.06.23-.31.19-.49a2.5,2.5,0,0,1,0-.72c0-.18,0-.37.22-.48s.39,0,.53.2a5.67,5.67,0,0,1,1.11,3.31s0,.06,0,.09a1.55,1.55,0,0,0,.69,1.81c.28.17.69.29.87,0a9.91,9.91,0,0,1,1-1.12,1,1,0,0,1,.66-.36,1,1,0,0,0,.81-.47c.06-.11.09-.17.24-.15.44.06.88.08,1.32.12.06,0,.16.05.17,0,.05-.54.57-.56.89-.77a11.94,11.94,0,0,1,1.38-.82c.35-.16.73,0,1-.22a4.91,4.91,0,0,1,2.27-.67c.77-.15,1.45.37,2.26.24a3.42,3.42,0,0,1,1.67.33c.15.06.33.1.37-.07s.22-.13.38-.09c.34.09.7.55,1,0,.07-.11.12,0,.17.07s.13.28.28.1S215.87,86.63,215.64,86.53ZM139,61.58a4.59,4.59,0,0,1,0,1.57,3.81,3.81,0,0,1-.17.92c-.16.45-.32.73-.81.76,0,0-.08,0-.08,0,0,.4-.43.65-.48,1s0,.55-.36.7a.55.55,0,0,1-.43,0,1.1,1.1,0,0,1-.26.46l.06,0c.2.08.12.31,0,.45a.43.43,0,0,0-.05.54c.23.32,0,.29-.21.33s-.55.12-.82.2c-.1,0-.28.14-.27.18.1.46-.35.54-.54.79a7.3,7.3,0,0,0-.5,1A5.5,5.5,0,0,1,132.81,72c-.14.13-.07.25-.08.39,0,.31,0,.63-.48.57a.31.31,0,0,0-.33.24c0,.35-.26.58-.42.81a10.16,10.16,0,0,1-1.35,1.71c-.05,0-.13.1-.13.14,0,.49-.44.77-.52,1.24-.05.32-.09.81-.64.93a.68.68,0,0,0-.56.79.25.25,0,0,1-.12.29c-.61.22-.54.92-.87,1.24a7.65,7.65,0,0,0-.81,1.33,2.36,2.36,0,0,1-1,1.07,1,1,0,0,0,0,1.1c-.5-.22-.68,0-.83.32a1.55,1.55,0,0,1-.52.78c-.08,0-.15.1-.13.19.12.41-.19.48-.44.69a.5.5,0,0,1-.57.12.77.77,0,0,1,0,.45.63.63,0,0,1,.22.57.8.8,0,0,0,0,.46c.07.15,0,.32-.17.31s-.41.18-.46.43a1.77,1.77,0,0,1-.48.83c-.28.3-.29.42.12.51.07,0,.14.08.12.25-.21-.13-.39-.24-.59-.07s-.37.33-.26.52c.24.39-.09.54-.25.74s-.32.2-.19.47-.11.24-.2.35a.5.5,0,0,0,.09.84c.37.26.18.57,0,.82s-.39.09-.56-.07-.25-.39-.45-.23a.63.63,0,0,0-.15.58c0,.09.14.21,0,.23a.85.85,0,0,0-.72.61.19.19,0,0,1-.24.11.32.32,0,0,1-.19-.31c0-.49-.06-1-.11-1.48a6.52,6.52,0,0,1,.1-1.17c0-.65.47-1.29,0-1.94.15-.1.28.18.4,0s0-.23,0-.36a3.49,3.49,0,0,1,0-1.44.62.62,0,0,0-.25-.63.66.66,0,0,1-.25-.84,4.54,4.54,0,0,0,.08-2.11l.27.12a.77.77,0,0,0,0-.15.06.06,0,0,0,0,0c0-.06-.06-.16,0,0v0a1,1,0,0,1-.06-.33c-.33-.23-.43-.45-.19-.8s.11-.79.12-1.17c0-.13,0-.28,0-.41a1.75,1.75,0,0,0-.47-1.87c.43.08.55-.21.45-.51-.14-.47.13-.78.34-1.12.07-.11.19-.2.14-.34s-.19,0-.3,0a.35.35,0,0,1-.27-.18c0-.11.06-.11.12-.16a.6.6,0,0,0,0-.91c-.21-.17-.31-.3-.08-.53a.45.45,0,0,0,.09-.31,3.92,3.92,0,0,1,.2-1.63,3,3,0,0,0-.19-1.07c0-.22-.11-.33.11-.55s.19-.64.26-1a1.39,1.39,0,0,0-.29-1.4c0-.05-.26-.44.19-.47.12,0,.2-.3.14-.35-.5-.46-.14-1,0-1.4a2.45,2.45,0,0,0-.27-1.75c-.11-.2-.13-.43,0-.51.29-.2.17-.47.18-.7s-.14-.46.22-.52a.13.13,0,0,0,.06-.11,17.84,17.84,0,0,1-.14-2.07c0-.24-.21-.29-.36-.4s-.13-.12-.08-.2.14-.05.21,0,.3.26.56.14c-.39-.35-.28-.87-.51-1.26a.2.2,0,0,1,0-.27,3.72,3.72,0,0,1,.47-.34,2.34,2.34,0,0,1-.06-1,.38.38,0,0,1,0-.53.43.43,0,0,0,.07-.49.85.85,0,0,1,0-.83c.19-.36,0-.77.22-1.09.07-.09,0-.18-.09-.26s-.14-.15-.1-.25c.18-.39.09-.86.23-1.2a1.1,1.1,0,0,0-.27-1.42.78.78,0,0,0,.65-.94c0-.05-.07-.14-.11-.14-.82,0,0-.39-.12-.54.42-.32.28-.82.37-1.24,0-.18-.15-.2-.31-.12s-.25,0-.28-.17,0-.21.18-.23l.38-.1c.1,0,.25-.09.23-.14-.24-.54.48-1,.14-1.53-.15-.25,0-.54,0-.83a14.52,14.52,0,0,0,.44-2.14.55.55,0,0,1,.11-.36A2.27,2.27,0,0,0,121.6,43a7.74,7.74,0,0,0,.4-1.79c0-.12.14-.16.24-.21a.27.27,0,0,0,.19-.35c-.19-.51.13-.82.45-1.11s.19-.72.38-1.06c0-.06,0-.23.08-.23.68,0,.57-.62.65-.94s.15-.24.31-.18l.1,0a1.5,1.5,0,0,1,.2-.4c-.15-.11-.11-.3.09-.51.45-.46.9-.93,1.31-1.43a6.67,6.67,0,0,1,1.88-1.71c.25-.13.38-.39.67-.51s.65-.5,1-.67.61-.38.95-.52a1,1,0,0,1,.87,0,5.71,5.71,0,0,1,2.81,2.8c.25.47.32,1,.56,1.51.53,1.08.59,2.3,1.12,3.4a4.48,4.48,0,0,1,.46,2.22c0,.25-.06.4-.28.3a4.5,4.5,0,0,1,.08.51c.07.05.14.08.21.14a.66.66,0,0,1,.32.64,1.92,1.92,0,0,0,.17,1,.61.61,0,0,1,.08.37,1.51,1.51,0,0,0,.24,1,.85.85,0,0,1,.1.74,3,3,0,0,0,.14,1.55,1.51,1.51,0,0,1,0,.7,1.09,1.09,0,0,0,0,.62,1.9,1.9,0,0,1,.09,1.13.33.33,0,0,0,0,.23,6.79,6.79,0,0,1,.27,1.59,16.75,16.75,0,0,0,.43,2.91,2.86,2.86,0,0,1,.06,1.51c0,.15,0,.38.09.45.28.24.2.55.18.8,0,.47.1.93.08,1.35s.36,1,.23,1.55c-.06.24.11.32.31.46C138.79,61.05,138.89,61.26,139,61.58Zm6,15.53c.32.35.07.62,0,.9s-.12.41,0,.59-.09.48-.07.73a15.78,15.78,0,0,1,0,2.28,4.57,4.57,0,0,0,.07,1.76,1,1,0,0,1-.17,1.07.29.29,0,0,0,0,.36,1.31,1.31,0,0,1,0,1.26.64.64,0,0,0,0,.43,3.88,3.88,0,0,1-.06,2.24c0,.2.05.42,0,.62s-.12.41-.35.16-.34-.15-.53.13c0-.35-.06-.54.26-.72s.07-.56-.08-.78a.93.93,0,0,1-.16-.77c.14-.81.11-.84-.59-1.26.12-.14.41,0,.45-.25a1,1,0,0,0-.1-.55,1.34,1.34,0,0,1-.11-.93c.1-.36-.1-.72-.13-1.06-.09-1-.35-2-.42-3.08a.91.91,0,0,0-.26-.69.33.33,0,0,1-.11-.36,5.78,5.78,0,0,0-.14-2.07,6.26,6.26,0,0,1-.18-1.85c0-.35-.33-.85-.23-1.31a1.09,1.09,0,0,0-.36-1.13.34.34,0,0,1-.08-.31c.32-.42.07-.91.14-1.35a2.1,2.1,0,0,0-.25-1c-.09-.24-.11-.46.08-.62s.31-.06.47,0a1.09,1.09,0,0,1,0-.59.59.59,0,0,0-.27,0s-.15-.13-.17-.21a3.47,3.47,0,0,1-.31-1.34,2.39,2.39,0,0,0-.72-2.25,3.46,3.46,0,0,1-.47-.74c.11-.05.12,0,.14,0,.19.28.47.47.77.28s.11-.56,0-.76-.14-.32,0-.48.19-.22.11-.33a.48.48,0,0,1,0-.54c.17-.32.45-.55.62-.9a1,1,0,0,1,1-.46c.25,0,.44.13.45.34,0,.57.53.84.7,1.32a1.06,1.06,0,0,1,.14.58,2.43,2.43,0,0,0,.16,1.13,7,7,0,0,1,.42,2.23c0,.46.28.93.17,1.41a2.09,2.09,0,0,0,.24,1.57.43.43,0,0,1-.08.52s-.07,0-.12,0c.08.22.15.45.21.67l.07,0c.41.2.43.44.22.83s-.15.67-.31,1c0,.09.06.18.13.24s.37.3.05.5c0,0-.07.11-.05.13.56.53-.13,1,0,1.56.05.3-.07.67.43.75C145.08,76.15,144.7,76.84,144.94,77.11Zm14.4,16.6c-.06.18-.12.36-.19.53a6.45,6.45,0,0,1-1.21,2c-.42.48-.69,1-1.15,1.51q-.33.33-.69.63a12.18,12.18,0,0,0-1.65,1.64.62.62,0,0,1-.37.22c-.44,0-.54-.12-.39-.37a4.67,4.67,0,0,1,.9-1.36,3.68,3.68,0,0,0,.95-1.12c.08-.13.11-.45.44-.36.09,0,.17-.13.14-.22-.16-.34.09-.41.29-.58s.56-.19.48-.58c0-.06.07-.08.14-.1.35-.07.47-.38.64-.63s.23-.52.62-.48a.25.25,0,0,0,.29-.29c-.06-.45.4-.43.62-.61S159.38,93.61,159.34,93.71Z" transform="translate(-34.33 -29.49)"/><path d="M148.15,123a7.68,7.68,0,0,1-.24-2,.37.37,0,0,0-.07-.23,1.19,1.19,0,0,1-.11-1.36c-.34-.31-.06-.68-.12-1s-.22-.39-.26-.65a.48.48,0,0,1,.13-.47c.38-.27.11-.37-.1-.49-.45-.26-.47-.35-.11-.72,0,0,.08-.1.07-.11-.35-.55-.05-1.4-.86-1.73-.21-.09-.24-.26.06-.33s.44-.21.09-.42a.26.26,0,0,1-.12-.33,1.3,1.3,0,0,0,.05-1c-.08-.2.19-.19.42-.23-.35-.18-.71-.26-.46-.72.07-.15-.08-.43-.15-.64s-.33-.47,0-.72c.06,0,0-.12-.05-.15-.67-.33-.44-.92-.43-1.45a1.56,1.56,0,0,0,0-.57c-.07-.29,0-.65.28-.66a.71.71,0,0,1,.71.55,1.7,1.7,0,0,0,.5,1.06c.31.31.07.66,0,1a5.41,5.41,0,0,1-.16,1c-.06.15,0,.3.17.28.53,0,.35.4.33.57a1.91,1.91,0,0,0,.1,1.29,1.57,1.57,0,0,1,0,1.09,1.33,1.33,0,0,0,.14.73c0,.11.2.2,0,.31,0,0-.13.09,0,.07.41-.06.33.25.31.47a2.25,2.25,0,0,1-.13.51c-.2.5.22.83.34,1.24a1.6,1.6,0,0,1,0,.65,6.9,6.9,0,0,0,.22,2.26c.07.31.27.67.08,1a.1.1,0,0,0,0,.09,2.88,2.88,0,0,1,.41,1.8,11.06,11.06,0,0,1,0,1.52c0,.25-.8.26-1,0s-.79-.57-.87-1.1c0,0,0,0,0,0-.66,0-.44-.63-.69-.92-.08-.1-.2-.27-.05-.39s.16.13.27.17a1.1,1.1,0,0,0,.41.07c.28,0,.43.22.45.52S148,123,148.15,123Z" transform="translate(-34.33 -29.49)"/><path d="M145.43,105.43a4.49,4.49,0,0,0-.33-2.07A3.14,3.14,0,0,1,145,102c0-.28.09-.56-.19-.78s0-.23.12-.31a.42.42,0,0,1,.45,0,2.76,2.76,0,0,1,.81,1.11c.3.71,0,1.44.22,2.11.13.38.42.76.24,1.13a.75.75,0,0,0,.06.78.92.92,0,0,1,.09.68c0,.36-.16.32-.37.13-.06-.05-.13-.13-.2-.13-.71,0-.67-.6-.75-1.08A1.41,1.41,0,0,1,145.43,105.43Z" transform="translate(-34.33 -29.49)"/><path d="M146.39,122c-.42,0-.65-.12-.52-.57a.64.64,0,0,0-.2-.61c-.15-.18-.38-.3-.45-.55s-.1-.16-.21-.1a.21.21,0,0,1-.33-.21c0-.56-.4-.79-.74-1.07s-.19-.52-.15-.75.35-.09.38.06c.13.58.74.76,1,1.27.16.35.71.33.92.72,0,.07.18.1.15.21C146.06,120.9,146.38,121.38,146.39,122Z" transform="translate(-34.33 -29.49)"/><path d="M144.29,99.81s0-.08,0-.13,0-.49.2-.54.4.17.55.33.49.59.75.86,0,.34-.09.47-.31.13-.4-.08a.29.29,0,0,0-.33-.21A.66.66,0,0,1,144.29,99.81Z" transform="translate(-34.33 -29.49)"/></svg>